SplineFontDB: 3.2
FontName: Untitled2
FullName: Untitled2
FamilyName: Untitled2
Weight: Regular
Copyright: Copyright (c) 2024, Darren Embry
UComments: "2024-10-17: Created with FontForge (http://fontforge.org)"
Version: 001.000
ItalicAngle: 0
UnderlinePosition: -1008
UnderlineWidth: 384
Ascent: 1344
Descent: 336
InvalidEm: 0
LayerCount: 2
Layer: 0 0 "Back" 1
Layer: 1 0 "Fore" 0
XUID: [1021 323 -1642646731 12193472]
OS2Version: 0
OS2_WeightWidthSlopeOnly: 0
OS2_UseTypoMetrics: 1
CreationTime: 1729142792
ModificationTime: 1729476130
OS2TypoAscent: 0
OS2TypoAOffset: 1
OS2TypoDescent: 0
OS2TypoDOffset: 1
OS2TypoLinegap: 0
OS2WinAscent: 0
OS2WinAOffset: 1
OS2WinDescent: 0
OS2WinDOffset: 1
HheadAscent: 0
HheadAOffset: 1
HheadDescent: 0
HheadDOffset: 1
OS2Vendor: 'PfEd'
MarkAttachClasses: 1
DEI: 91125
Encoding: UnicodeBmp
UnicodeInterp: none
NameList: AGL For New Fonts
DisplaySize: -24
AntiAlias: 1
FitToEm: 0
WinInfo: 0 57 18
BeginPrivate: 0
EndPrivate
BeginChars: 65568 113

StartChar: parenleft
Encoding: 40 40 0
Width: 1008
VWidth: 4000
Flags: HW
LayerCount: 2
Fore
SplineSet
636.431640625 1049.59082031 m 2
 653.233398438 1081.32617188 630.12890625 1120 593.98046875 1120 c 0
 575.580078125 1120 559.583984375 1109.62402344 551.529296875 1094.40917969 c 0
 548.129882812 1087.98828125 365.98046875 742.27734375 365.98046875 392 c 0
 365.98046875 233.330078125 402.896484375 77.951171875 443.391601562 -46.34765625 c 0
 494.013671875 -201.729492188 550.666015625 -308.778320312 551.529296875 -310.409179688 c 0
 559.583984375 -325.624023438 575.580078125 -336 593.98046875 -336 c 0
 630.12890625 -336 653.233398438 -297.326171875 636.431640625 -265.590820312 c 2
 636.431640625 -265.590820312 461.98046875 65.7880859375 461.98046875 392 c 0
 461.98046875 718.211914062 636.431640625 1049.59082031 636.431640625 1049.59082031 c 2
EndSplineSet
EndChar

StartChar: zero
Encoding: 48 48 1
Width: 1008
VWidth: 4000
Flags: HW
LayerCount: 2
Fore
SplineSet
504 76 m 4
 357.80859375 76 232 278.004882812 232 528 c 4
 232 777.991210938 357.806640625 980 504 980 c 4
 650.19140625 980 776 777.995117188 776 528 c 4
 776 278.008789062 650.193359375 76 504 76 c 4
504 1076 m 4
 298.434570312 1076 136 831.864257812 136 528 c 4
 136 224.15625 298.420898438 -20 504 -20 c 4
 709.565429688 -20 872 224.135742188 872 528 c 4
 872 831.84375 709.579101562 1076 504 1076 c 4
182.5078125 72.134765625 m 6
 163.970703125 40.35546875 187.006835938 0 224 0 c 4
 241.696289062 0 257.168945312 9.5966796875 265.4921875 23.865234375 c 6
 825.4921875 983.865234375 l 6
 844.029296875 1015.64453125 820.993164062 1056 784 1056 c 4
 766.303710938 1056 750.831054688 1046.40332031 742.5078125 1032.13476562 c 6
 182.5078125 72.134765625 l 6
EndSplineSet
EndChar

StartChar: eight
Encoding: 56 56 2
Width: 1008
VWidth: 4000
Flags: HW
LayerCount: 2
Fore
SplineSet
504 76 m 4
 335.203125 76 192 171.233398438 192 288 c 4
 192 404.754882812 335.185546875 500 504 500 c 4
 672.796875 500 816 404.766601562 816 288 c 4
 816 171.245117188 672.814453125 76 504 76 c 4
504 596 m 4
 274.146484375 596 96 456.850585938 96 288 c 4
 96 119.157226562 274.135742188 -20 504 -20 c 4
 733.853515625 -20 912 119.149414062 912 288 c 4
 912 456.842773438 733.864257812 596 504 596 c 4
504 596 m 4
 356.854492188 596 232 682.016601562 232 788 c 4
 232 893.98046875 356.850585938 980 504 980 c 4
 651.145507812 980 776 893.983398438 776 788 c 4
 776 682.01953125 651.149414062 596 504 596 c 4
504 1076 m 4
 296.928710938 1076 136 945.788085938 136 788 c 4
 136 630.21875 296.919921875 500 504 500 c 4
 711.071289062 500 872 630.211914062 872 788 c 4
 872 945.78125 711.080078125 1076 504 1076 c 4
EndSplineSet
EndChar

StartChar: at
Encoding: 64 64 3
Width: 1008
VWidth: 4000
Flags: HW
LayerCount: 2
Fore
SplineSet
634 -124 m 0
 626.899414062 -124 599.140625 -128.65234375 557.850585938 -128.65234375 c 0
 383.997070312 -128.65234375 302.114257812 -42.7412109375 257.864257812 35.890625 c 0
 208.583007812 123.461914062 182 249.125976562 182 408 c 0
 182 644.006835938 225.060546875 866.252929688 369.88671875 946.327148438 c 0
 409.345703125 968.143554688 456.58203125 980 514 980 c 0
 650.912109375 980 724.327148438 911.578125 766.8125 829.463867188 c 0
 806.538085938 752.682617188 826 647.885742188 826 530.015625 c 0
 826 413.069335938 816.2734375 337.153320312 802.596679688 293.0703125 c 0
 791.5 257.302734375 779.40625 245.844726562 773.248046875 242.076171875 c 0
 744.9375 224.751953125 702 267.4609375 702 303.828125 c 0
 702 330.3203125 680.4921875 351.828125 654 351.828125 c 0
 627.5078125 351.828125 606 330.3203125 606 303.828125 c 0
 606 254.021484375 630.290039062 211.33203125 661.739257812 182.4140625 c 0
 686.85546875 159.319335938 719.174804688 142.0625 756.25 142.0625 c 0
 809.477539062 142.0625 864.700195312 169.197265625 894.305664062 264.625 c 0
 912.88671875 324.516601562 922 407.998046875 922 530.015625 c 0
 922 608.708984375 918.82421875 915.208007812 700.90234375 1032.31054688 c 0
 647.662109375 1060.91992188 585.0390625 1076 514 1076 c 0
 390.53125 1076 248.536132812 1030.16601562 163.509765625 851.762695312 c 0
 109.647460938 738.748046875 86 589.911132812 86 408 c 0
 86 272.381835938 100.084960938 -60.6416015625 351.44140625 -181.419921875 c 0
 424.497070312 -216.522460938 518.631835938 -233.908203125 639.658203125 -219.668945312 c 0
 663.487304688 -216.866210938 682 -196.578125 682 -172 c 0
 682 -145.5078125 660.4921875 -124 634 -124 c 0
654 255.828125 m 0
 680.4921875 255.828125 702 277.3359375 702 303.828125 c 2
 701.3125 633.211914062 l 2
 701.256835938 659.65625 679.770507812 681.109375 653.3125 681.109375 c 0
 626.8203125 681.109375 605.3125 659.6015625 605.3125 633.109375 c 2
 606 303.725585938 l 2
 606 277.28125 627.541992188 255.828125 654 255.828125 c 0
514 816 m 0
 398.606445312 816 326 747.474609375 326 648 c 0
 326 621.5078125 347.5078125 600 374 600 c 0
 400.4921875 600 422 621.5078125 422 648 c 0
 422 683.603515625 438.916015625 697.547851562 448.935546875 704.10546875 c 0
 463.094726562 713.374023438 485.458984375 720 514 720 c 0
 547.91796875 720 605.3125 708.783203125 605.3125 632.859375 c 0
 605.3125 581.3515625 561.45703125 548.943359375 476.734375 523.536132812 c 0
 427.096679688 508.662109375 306 466.336914062 306 328 c 0
 306 212.216796875 373.633789062 128.3125 474 128.3125 c 0
 580.262695312 128.3125 702 220.95703125 702 348 c 0
 702 374.4921875 680.4921875 396 654 396 c 0
 627.5078125 396 606 374.4921875 606 348 c 0
 606 275.69140625 528.265625 224.3125 474 224.3125 c 0
 405.388671875 224.3125 402 310.895507812 402 328 c 0
 402 365.458007812 414.44140625 404.6328125 504.296875 431.557617188 c 0
 590.57421875 457.431640625 701.3125 509.3359375 701.3125 632.859375 c 0
 701.3125 739.986328125 627.387695312 816 514 816 c 0
EndSplineSet
EndChar

StartChar: H
Encoding: 72 72 4
Width: 1008
VWidth: 4000
Flags: HW
LayerCount: 2
Fore
SplineSet
132 1056 m 2
 105.5078125 1056 84 1034.4921875 84 1008 c 0
 84 981.5078125 105.5078125 960 132 960 c 2
 316 960 l 2
 342.4921875 960 364 981.5078125 364 1008 c 0
 364 1034.4921875 342.4921875 1056 316 1056 c 2
 132 1056 l 2
132 96 m 2
 105.5078125 96 84 74.4921875 84 48 c 0
 84 21.5078125 105.5078125 0 132 0 c 2
 316 0 l 2
 342.4921875 0 364 21.5078125 364 48 c 0
 364 74.4921875 342.4921875 96 316 96 c 2
 132 96 l 2
176 68 m 2
 176 41.5078125 197.5078125 20 224 20 c 0
 250.4921875 20 272 41.5078125 272 68 c 2
 272 1008 l 2
 272 1034.4921875 250.4921875 1056 224 1056 c 0
 197.5078125 1056 176 1034.4921875 176 1008 c 2
 176 68 l 2
692 1056 m 2
 665.5078125 1056 644 1034.4921875 644 1008 c 0
 644 981.5078125 665.5078125 960 692 960 c 2
 876 960 l 2
 902.4921875 960 924 981.5078125 924 1008 c 0
 924 1034.4921875 902.4921875 1056 876 1056 c 2
 692 1056 l 2
692 96 m 2
 665.5078125 96 644 74.4921875 644 48 c 0
 644 21.5078125 665.5078125 0 692 0 c 2
 876 0 l 2
 902.4921875 0 924 21.5078125 924 48 c 0
 924 74.4921875 902.4921875 96 876 96 c 2
 692 96 l 2
736 68 m 2
 736 41.5078125 757.5078125 20 784 20 c 0
 810.4921875 20 832 41.5078125 832 68 c 2
 832 1008 l 2
 832 1034.4921875 810.4921875 1056 784 1056 c 0
 757.5078125 1056 736 1034.4921875 736 1008 c 2
 736 68 l 2
244 596 m 2
 217.5078125 596 196 574.4921875 196 548 c 0
 196 521.5078125 217.5078125 500 244 500 c 2
 764 500 l 2
 790.4921875 500 812 521.5078125 812 548 c 0
 812 574.4921875 790.4921875 596 764 596 c 2
 244 596 l 2
EndSplineSet
EndChar

StartChar: O
Encoding: 79 79 5
Width: 1008
VWidth: 4000
Flags: HW
LayerCount: 2
Fore
SplineSet
504 76 m 0
 357.80859375 76 232 278.004882812 232 528 c 0
 232 777.991210938 357.806640625 980 504 980 c 0
 650.19140625 980 776 777.995117188 776 528 c 0
 776 278.008789062 650.193359375 76 504 76 c 0
504 1076 m 0
 298.434570312 1076 136 831.864257812 136 528 c 0
 136 224.15625 298.420898438 -20 504 -20 c 0
 709.565429688 -20 872 224.135742188 872 528 c 0
 872 831.84375 709.579101562 1076 504 1076 c 0
EndSplineSet
EndChar

StartChar: X
Encoding: 88 88 6
Width: 1008
VWidth: 4000
Flags: HW
LayerCount: 2
Fore
SplineSet
244 1056 m 4
 207.330078125 1056 184.262695312 1016.29003906 202.133789062 984.518554688 c 6
 742.133789062 24.5185546875 l 6
 750.362304688 9.890625 766.03515625 0 784 0 c 4
 820.669921875 0 843.737304688 39.7099609375 825.866210938 71.4814453125 c 6
 285.866210938 1031.48144531 l 6
 277.637695312 1046.109375 261.96484375 1056 244 1056 c 4
805.866210938 984.518554688 m 6
 823.737304688 1016.29003906 800.670898438 1056 764 1056 c 4
 746.03515625 1056 730.362304688 1046.109375 722.133789062 1031.48144531 c 6
 182.133789062 71.4814453125 l 6
 164.262695312 39.7099609375 187.329101562 0 224 0 c 4
 241.96484375 0 257.637695312 9.890625 265.866210938 24.5185546875 c 6
 805.866210938 984.518554688 l 6
644 96 m 6
 617.5078125 96 596 74.4921875 596 48 c 4
 596 21.5078125 617.5078125 0 644 0 c 6
 904 0 l 6
 930.4921875 0 952 21.5078125 952 48 c 4
 952 74.4921875 930.4921875 96 904 96 c 6
 644 96 l 6
104 96 m 6
 77.5078125 96 56 74.4921875 56 48 c 4
 56 21.5078125 77.5078125 0 104 0 c 6
 364 0 l 6
 390.4921875 0 412 21.5078125 412 48 c 4
 412 74.4921875 390.4921875 96 364 96 c 6
 104 96 l 6
624 1056 m 6
 597.5078125 1056 576 1034.4921875 576 1008 c 4
 576 981.5078125 597.5078125 960 624 960 c 6
 864 960 l 6
 890.4921875 960 912 981.5078125 912 1008 c 4
 912 1034.4921875 890.4921875 1056 864 1056 c 6
 624 1056 l 6
144 1056 m 6
 117.5078125 1056 96 1034.4921875 96 1008 c 4
 96 981.5078125 117.5078125 960 144 960 c 6
 384 960 l 6
 410.4921875 960 432 981.5078125 432 1008 c 4
 432 1034.4921875 410.4921875 1056 384 1056 c 6
 144 1056 l 6
EndSplineSet
EndChar

StartChar: x
Encoding: 120 120 7
Width: 1008
VWidth: 4000
Flags: HW
LayerCount: 2
Fore
SplineSet
132 96 m 2
 105.5078125 96 84 74.4921875 84 48 c 0
 84 21.5078125 105.5078125 0 132 0 c 2
 356 0 l 2
 382.4921875 0 404 21.5078125 404 48 c 0
 404 74.4921875 382.4921875 96 356 96 c 2
 132 96 l 2
652 96 m 2
 625.5078125 96 604 74.4921875 604 48 c 0
 604 21.5078125 625.5078125 0 652 0 c 2
 876 0 l 2
 902.4921875 0 924 21.5078125 924 48 c 0
 924 74.4921875 902.4921875 96 876 96 c 2
 652 96 l 2
172 756 m 2
 145.5078125 756 124 734.4921875 124 708 c 0
 124 681.5078125 145.5078125 660 172 660 c 2
 376 660 l 2
 402.4921875 660 424 681.5078125 424 708 c 0
 424 734.4921875 402.4921875 756 376 756 c 2
 172 756 l 2
632 756 m 2
 605.5078125 756 584 734.4921875 584 708 c 0
 584 681.5078125 605.5078125 660 632 660 c 2
 836 660 l 2
 862.4921875 660 884 681.5078125 884 708 c 0
 884 734.4921875 862.4921875 756 836 756 c 2
 632 756 l 2
280.61328125 739.02734375 m 2
 251.791992188 772.995117188 196 752.359375 196 708 c 0
 196 696.174804688 200.28515625 685.341796875 207.38671875 676.97265625 c 2
 767.38671875 16.97265625 l 2
 796.208007812 -16.9951171875 852 3.640625 852 48 c 0
 852 59.8251953125 847.71484375 70.658203125 840.61328125 79.02734375 c 2
 280.61328125 739.02734375 l 2
800.61328125 676.97265625 m 2
 826.959960938 708.024414062 804.693359375 756 764 756 c 0
 749.333984375 756 736.194335938 749.408203125 727.38671875 739.02734375 c 2
 167.38671875 79.02734375 l 2
 141.040039062 47.9755859375 163.306640625 0 204 0 c 0
 218.666015625 0 231.805664062 6.591796875 240.61328125 16.97265625 c 2
 800.61328125 676.97265625 l 2
EndSplineSet
EndChar

StartChar: one
Encoding: 49 49 8
Width: 1008
VWidth: 4000
Flags: HW
LayerCount: 2
Fore
SplineSet
224 96 m 6
 197.5078125 96 176 74.4921875 176 48 c 4
 176 21.5078125 197.5078125 0 224 0 c 6
 784 0 l 6
 810.4921875 0 832 21.5078125 832 48 c 4
 832 74.4921875 810.4921875 96 784 96 c 6
 224 96 l 6
456 48 m 6
 456 21.5078125 477.5078125 0 504 0 c 4
 530.4921875 0 552 21.5078125 552 48 c 6
 552 1008 l 6
 552 1034.4921875 530.4921875 1056 504 1056 c 6
 268 1056 l 6
 241.5078125 1056 220 1034.4921875 220 1008 c 4
 220 981.5078125 241.5078125 960 268 960 c 6
 456 960 l 5
 456 48 l 6
EndSplineSet
EndChar

StartChar: l
Encoding: 108 108 9
Width: 1008
VWidth: 4000
Flags: HW
LayerCount: 2
Fore
SplineSet
224 96 m 6
 197.5078125 96 176 74.4921875 176 48 c 4
 176 21.5078125 197.5078125 0 224 0 c 6
 784 0 l 6
 810.4921875 0 832 21.5078125 832 48 c 4
 832 74.4921875 810.4921875 96 784 96 c 6
 224 96 l 6
456 48 m 6
 456 21.5078125 477.5078125 0 504 0 c 4
 530.4921875 0 552 21.5078125 552 48 c 6
 552 1008 l 6
 552 1034.4921875 530.4921875 1056 504 1056 c 6
 268 1056 l 6
 241.5078125 1056 220 1034.4921875 220 1008 c 4
 220 981.5078125 241.5078125 960 268 960 c 6
 456 960 l 5
 456 48 l 6
EndSplineSet
EndChar

StartChar: I
Encoding: 73 73 10
Width: 1008
VWidth: 4000
Flags: HW
LayerCount: 2
Fore
SplineSet
224 96 m 2
 197.5078125 96 176 74.4921875 176 48 c 0
 176 21.5078125 197.5078125 0 224 0 c 2
 784 0 l 2
 810.4921875 0 832 21.5078125 832 48 c 0
 832 74.4921875 810.4921875 96 784 96 c 2
 224 96 l 2
224 1056 m 2
 197.5078125 1056 176 1034.4921875 176 1008 c 0
 176 981.5078125 197.5078125 960 224 960 c 2
 784 960 l 2
 810.4921875 960 832 981.5078125 832 1008 c 0
 832 1034.4921875 810.4921875 1056 784 1056 c 2
 224 1056 l 2
552 1008 m 2
 552 1034.4921875 530.4921875 1056 504 1056 c 0
 477.5078125 1056 456 1034.4921875 456 1008 c 2
 456 48 l 2
 456 21.5078125 477.5078125 0 504 0 c 0
 530.4921875 0 552 21.5078125 552 48 c 2
 552 1008 l 2
EndSplineSet
EndChar

StartChar: Y
Encoding: 89 89 11
Width: 1008
VWidth: 4000
Flags: HW
LayerCount: 2
Fore
SplineSet
344 96 m 2
 317.5078125 96 296 74.4921875 296 48 c 0
 296 21.5078125 317.5078125 0 344 0 c 2
 664 0 l 2
 690.4921875 0 712 21.5078125 712 48 c 0
 712 74.4921875 690.4921875 96 664 96 c 2
 344 96 l 2
456 48 m 2
 456 21.5078125 477.5078125 0 504 0 c 0
 530.4921875 0 552 21.5078125 552 48 c 2
 552 448 l 2
 552 474.4921875 530.4921875 496 504 496 c 0
 477.5078125 496 456 474.4921875 456 448 c 2
 456 48 l 2
204 1056 m 0
 167.750976562 1056 144.653320312 1017.12792969 161.659179688 985.3828125 c 2
 461.659179688 425.3828125 l 2
 479.731445312 391.647460938 528.267578125 391.647460938 546.340820312 425.3828125 c 2
 846.340820312 985.3828125 l 2
 863.346679688 1017.12792969 840.249023438 1056 804 1056 c 0
 785.68359375 1056 769.749023438 1045.71875 761.659179688 1030.6171875 c 2
 504 549.65234375 l 1
 246.340820312 1030.6171875 l 2
 238.250976562 1045.71875 222.31640625 1056 204 1056 c 0
104 1056 m 2
 77.5078125 1056 56 1034.4921875 56 1008 c 0
 56 981.5078125 77.5078125 960 104 960 c 2
 344 960 l 2
 370.4921875 960 392 981.5078125 392 1008 c 0
 392 1034.4921875 370.4921875 1056 344 1056 c 2
 104 1056 l 2
664 1056 m 2
 637.5078125 1056 616 1034.4921875 616 1008 c 0
 616 981.5078125 637.5078125 960 664 960 c 2
 904 960 l 2
 930.4921875 960 952 981.5078125 952 1008 c 0
 952 1034.4921875 930.4921875 1056 904 1056 c 2
 664 1056 l 2
EndSplineSet
EndChar

StartChar: quotedbl
Encoding: 34 34 12
Width: 1008
VWidth: 4000
Flags: HW
LayerCount: 2
Fore
SplineSet
704 560 m 0
 728.86328125 560 749.336914062 578.9453125 751.759765625 603.174804688 c 0
 792 1005.57421875 792 1005.57421875 792 1008 c 0
 792 1034.4921875 770.4921875 1056 744 1056 c 0
 664 1056 664 1056 664 1056 c 2
 637.5078125 1056 616 1034.4921875 616 1008 c 0
 616 1005.57421875 616 1005.57421875 656.240234375 603.174804688 c 0
 658.663085938 578.9453125 679.13671875 560 704 560 c 0
304 560 m 0
 328.86328125 560 349.336914062 578.9453125 351.759765625 603.174804688 c 0
 392 1005.57421875 392 1005.57421875 392 1008 c 0
 392 1034.4921875 370.4921875 1056 344 1056 c 0
 264 1056 264 1056 264 1056 c 2
 237.5078125 1056 216 1034.4921875 216 1008 c 0
 216 1005.57421875 216 1005.57421875 256.240234375 603.174804688 c 0
 258.663085938 578.9453125 279.13671875 560 304 560 c 0
EndSplineSet
EndChar

StartChar: asterisk
Encoding: 42 42 13
Width: 1008
VWidth: 4000
Flags: HW
LayerCount: 2
Fore
SplineSet
204 776 m 2
 177.5078125 776 156 754.4921875 156 728 c 0
 156 701.5078125 177.5078125 680 204 680 c 2
 804 680 l 2
 830.4921875 680 852 701.5078125 852 728 c 0
 852 754.4921875 830.4921875 776 804 776 c 2
 204 776 l 2
354 1035.8125 m 0
 317.099609375 1035.8125 294.053710938 995.641601562 312.400390625 963.864257812 c 2
 612.400390625 444.239257812 l 2
 620.697265625 429.868164062 636.2265625 420.1875 654 420.1875 c 0
 690.900390625 420.1875 713.946289062 460.358398438 695.599609375 492.135742188 c 2
 395.599609375 1011.76074219 l 2
 387.302734375 1026.13183594 371.7734375 1035.8125 354 1035.8125 c 0
695.599609375 963.864257812 m 2
 713.946289062 995.642578125 690.900390625 1035.8125 654 1035.8125 c 0
 636.2265625 1035.8125 620.697265625 1026.13183594 612.400390625 1011.76074219 c 2
 312.400390625 492.135742188 l 2
 294.053710938 460.357421875 317.099609375 420.1875 354 420.1875 c 0
 371.7734375 420.1875 387.302734375 429.868164062 395.599609375 444.239257812 c 2
 695.599609375 963.864257812 l 2
EndSplineSet
EndChar

StartChar: colon
Encoding: 58 58 14
Width: 1008
VWidth: 4000
Flags: HW
LayerCount: 2
Fore
SplineSet
504 676 m 0
 501.34375 676 501.377929688 680 504 680 c 0
 506.622070312 680 506.65625 676 504 676 c 0
406 678 m 0
 406 623.889648438 449.920898438 580 504 580 c 0
 558.079101562 580 602 623.889648438 602 678 c 0
 602 732.091796875 558.091796875 776 504 776 c 0
 449.908203125 776 406 732.091796875 406 678 c 0
454 677.997070312 m 0
 454 705.611328125 476.385742188 727.997070312 504 727.997070312 c 0
 531.614257812 727.997070312 554 705.611328125 554 677.997070312 c 0
 554 650.3828125 531.614257812 627.997070312 504 627.997070312 c 0
 476.385742188 627.997070312 454 650.3828125 454 677.997070312 c 0
504 76 m 0
 501.34375 76 501.377929688 80 504 80 c 0
 506.622070312 80 506.65625 76 504 76 c 0
406 78 m 0
 406 23.8896484375 449.920898438 -20 504 -20 c 0
 558.079101562 -20 602 23.8896484375 602 78 c 0
 602 132.091796875 558.091796875 176 504 176 c 0
 449.908203125 176 406 132.091796875 406 78 c 0
454 77.9970703125 m 0
 454 105.611328125 476.385742188 127.997070312 504 127.997070312 c 0
 531.614257812 127.997070312 554 105.611328125 554 77.9970703125 c 0
 554 50.3828125 531.614257812 27.9970703125 504 27.9970703125 c 0
 476.385742188 27.9970703125 454 50.3828125 454 77.9970703125 c 0
EndSplineSet
EndChar

StartChar: i
Encoding: 105 105 15
Width: 1008
VWidth: 4000
Flags: HW
LayerCount: 2
Fore
SplineSet
244 96 m 2
 217.5078125 96 196 74.4921875 196 48 c 0
 196 21.5078125 217.5078125 0 244 0 c 2
 764 0 l 2
 790.4921875 0 812 21.5078125 812 48 c 0
 812 74.4921875 790.4921875 96 764 96 c 2
 244 96 l 2
456 68 m 2
 456 41.5078125 477.5078125 20 504 20 c 0
 530.4921875 20 552 41.5078125 552 68 c 2
 552 708 l 2
 552 734.4921875 530.4921875 756 504 756 c 2
 284 756 l 2
 257.5078125 756 236 734.4921875 236 708 c 0
 236 681.5078125 257.5078125 660 284 660 c 2
 456 660 l 1
 456 68 l 2
491.984375 988 m 1
 473.984375 970 l 1
 455.984375 988 l 1
 473.984375 1006 l 1
 491.984375 988 l 1
395.984375 988 m 0
 395.984375 944.951171875 430.935546875 910 473.984375 910 c 0
 517.052734375 910 551.984375 944.973632812 551.984375 988 c 0
 551.984375 1031.02636719 517.052734375 1066 473.984375 1066 c 0
 430.935546875 1066 395.984375 1031.04882812 395.984375 988 c 0
443.990234375 988 m 0
 443.990234375 1004.56835938 457.421875 1018 473.990234375 1018 c 0
 490.55859375 1018 503.990234375 1004.56835938 503.990234375 988 c 0
 503.990234375 971.430664062 490.55859375 958 473.990234375 958 c 0
 457.421875 958 443.990234375 971.430664062 443.990234375 988 c 0
EndSplineSet
EndChar

StartChar: A
Encoding: 65 65 16
Width: 1008
VWidth: 4000
Flags: HW
LayerCount: 2
Fore
SplineSet
296 48 m 0
 296 21.5078125 317.5078125 0 344 0 c 0
 370.4921875 0 392 21.5078125 392 48 c 0
 392 74.4921875 370.4921875 96 344 96 c 0
 317.5078125 96 296 74.4921875 296 48 c 0
324 0 m 2
 350.4921875 0 372 21.5078125 372 48 c 0
 372 74.4921875 350.4921875 96 324 96 c 2
 124 96 l 2
 97.5078125 96 76 74.4921875 76 48 c 0
 76 21.5078125 97.5078125 0 124 0 c 2
 324 0 l 2
884 0 m 2
 910.4921875 0 932 21.5078125 932 48 c 0
 932 74.4921875 910.4921875 96 884 96 c 2
 684 96 l 2
 657.5078125 96 636 74.4921875 636 48 c 0
 636 21.5078125 657.5078125 0 684 0 c 2
 884 0 l 2
157.663085938 60.5615234375 m 2
 149.430664062 30.1640625 172.366210938 0 204 0 c 0
 226.146484375 0 244.809570312 15.0302734375 250.336914062 35.4384765625 c 2
 500.739257812 960 l 1
 507.260742188 960 l 1
 757.663085938 35.4384765625 l 2
 763.190429688 15.0302734375 781.853515625 0 804 0 c 0
 835.634765625 0 858.569335938 30.1650390625 850.336914062 60.5615234375 c 2
 590.336914062 1020.56152344 l 2
 584.809570312 1040.96972656 566.146484375 1056 544 1056 c 2
 464 1056 l 2
 441.853515625 1056 423.190429688 1040.96972656 417.663085938 1020.56152344 c 2
 157.663085938 60.5615234375 l 2
304 408 m 2
 277.5078125 408 256 386.4921875 256 360 c 0
 256 333.5078125 277.5078125 312 304 312 c 2
 704 312 l 2
 730.4921875 312 752 333.5078125 752 360 c 0
 752 386.4921875 730.4921875 408 704 408 c 2
 304 408 l 2
EndSplineSet
EndChar

StartChar: parenright
Encoding: 41 41 17
Width: 1008
VWidth: 4000
Flags: HW
LayerCount: 2
Fore
SplineSet
371.568359375 -265.590820312 m 2
 354.766601562 -297.326171875 377.87109375 -336 414.01953125 -336 c 0
 432.419921875 -336 448.416015625 -325.624023438 456.470703125 -310.409179688 c 0
 459.870117188 -303.98828125 642.01953125 41.72265625 642.01953125 392 c 0
 642.01953125 550.669921875 605.103515625 706.048828125 564.608398438 830.34765625 c 0
 513.986328125 985.729492188 457.333984375 1092.77832031 456.470703125 1094.40917969 c 0
 448.416015625 1109.62402344 432.419921875 1120 414.01953125 1120 c 0
 377.87109375 1120 354.766601562 1081.32617188 371.568359375 1049.59082031 c 2
 371.568359375 1049.59082031 546.01953125 718.211914062 546.01953125 392 c 0
 546.01953125 65.7880859375 371.568359375 -265.590820312 371.568359375 -265.590820312 c 2
EndSplineSet
EndChar

StartChar: exclam
Encoding: 33 33 18
Width: 1008
VWidth: 4000
Flags: HW
LayerCount: 2
Fore
SplineSet
406 78 m 0
 406 23.908203125 449.908203125 -20 504 -20 c 0
 558.091796875 -20 602 23.908203125 602 78 c 0
 602 132.091796875 558.091796875 176 504 176 c 0
 449.908203125 176 406 132.091796875 406 78 c 0
504 280 m 0
 529.532226562 280 550.435546875 299.978515625 551.916015625 325.142578125 c 0
 592 1006.56738281 592 1006.56738281 592 1008 c 0
 592 1034.4921875 570.4921875 1056 544 1056 c 2
 464 1056 l 2
 437.5078125 1056 416 1034.4921875 416 1008 c 0
 416 1006.56738281 416 1006.56738281 456.083984375 325.142578125 c 0
 457.564453125 299.978515625 478.467773438 280 504 280 c 0
EndSplineSet
EndChar

StartChar: P
Encoding: 80 80 19
Width: 1008
VWidth: 4000
Flags: HW
LayerCount: 2
Fore
SplineSet
610 1056 m 0
 583.5078125 1056 562 1034.4921875 562 1008 c 0
 562 981.5078125 583.5078125 960 610 960 c 0
 710.4453125 960 792 878.4453125 792 778 c 0
 792 677.5546875 710.4453125 596 610 596 c 0
 583.5078125 596 562 574.4921875 562 548 c 0
 562 521.5078125 583.5078125 500 610 500 c 0
 763.4296875 500 888 624.5703125 888 778 c 0
 888 931.4296875 763.4296875 1056 610 1056 c 0
610 960 m 2
 636.4921875 960 658 981.5078125 658 1008 c 0
 658 1034.4921875 636.4921875 1056 610 1056 c 2
 168 1056 l 2
 141.5078125 1056 120 1034.4921875 120 1008 c 0
 120 981.5078125 141.5078125 960 168 960 c 2
 610 960 l 2
610 500 m 2
 636.4921875 500 658 521.5078125 658 548 c 0
 658 574.4921875 636.4921875 596 610 596 c 2
 300 596 l 2
 273.5078125 596 252 574.4921875 252 548 c 0
 252 521.5078125 273.5078125 500 300 500 c 2
 610 500 l 2
328 988 m 2
 328 1014.4921875 306.4921875 1036 280 1036 c 0
 253.5078125 1036 232 1014.4921875 232 988 c 2
 232 68 l 2
 232 41.5078125 253.5078125 20 280 20 c 0
 306.4921875 20 328 41.5078125 328 68 c 2
 328 988 l 2
168 96 m 2
 141.5078125 96 120 74.4921875 120 48 c 0
 120 21.5078125 141.5078125 0 168 0 c 2
 392 0 l 2
 418.4921875 0 440 21.5078125 440 48 c 0
 440 74.4921875 418.4921875 96 392 96 c 2
 168 96 l 2
EndSplineSet
EndChar

StartChar: grave
Encoding: 96 96 20
Width: 1008
VWidth: 4000
Flags: HW
LayerCount: 2
Fore
SplineSet
648.319335938 575.91015625 m 2
 677.659179688 543.310546875 732.00390625 564.313476562 732.00390625 608 c 0
 732.00390625 617.0078125 729.517578125 625.438476562 725.194335938 632.64453125 c 2
 485.194335938 1032.64453125 l 2
 476.801757812 1046.63085938 461.48828125 1056 444.00390625 1056 c 2
 324.00390625 1056 l 2
 282.672851562 1056 260.625976562 1006.68066406 288.319335938 975.91015625 c 2
 648.319335938 575.91015625 l 2
EndSplineSet
EndChar

StartChar: h
Encoding: 104 104 21
Width: 1008
VWidth: 4000
Flags: HW
LayerCount: 2
Fore
SplineSet
164 96 m 6
 137.5078125 96 116 74.4921875 116 48 c 4
 116 21.5078125 137.5078125 0 164 0 c 6
 364 0 l 6
 390.4921875 0 412 21.5078125 412 48 c 4
 412 74.4921875 390.4921875 96 364 96 c 6
 164 96 l 6
644 96 m 6
 617.5078125 96 596 74.4921875 596 48 c 4
 596 21.5078125 617.5078125 0 644 0 c 6
 844 0 l 6
 870.4921875 0 892 21.5078125 892 48 c 4
 892 74.4921875 870.4921875 96 844 96 c 6
 644 96 l 6
216 68 m 6
 216 41.5078125 237.5078125 20 264 20 c 4
 290.4921875 20 312 41.5078125 312 68 c 6
 312 1008 l 6
 312 1034.4921875 290.4921875 1056 264 1056 c 6
 164 1056 l 6
 137.5078125 1056 116 1034.4921875 116 1008 c 4
 116 981.5078125 137.5078125 960 164 960 c 6
 216 960 l 5
 216 68 l 6
792 522.046875 m 6
 792 672.053710938 709.213867188 780.859375 572.75 780.859375 c 4
 427.109375 780.859375 335.784179688 701.3671875 228.295898438 581.787109375 c 4
 200.629882812 551.008789062 222.682617188 501.71875 264 501.71875 c 4
 278.169921875 501.71875 290.915039062 507.872070312 299.704101562 517.650390625 c 4
 414.633789062 645.508789062 479.166992188 684.859375 572.75 684.859375 c 4
 597.896484375 684.859375 653.248046875 680.706054688 681.361328125 608.16015625 c 4
 690.903320312 583.537109375 696 553.540039062 696 522.046875 c 6
 696 48 l 6
 696 21.5078125 717.5078125 0 744 0 c 4
 770.4921875 0 792 21.5078125 792 48 c 6
 792 522.046875 l 6
EndSplineSet
EndChar

StartChar: p
Encoding: 112 112 22
Width: 1008
VWidth: 4000
Flags: HW
LayerCount: 2
Fore
SplineSet
291.9921875 378 m 4
 291.9921875 549.810546875 414.225585938 680 553.9921875 680 c 4
 693.774414062 680 815.9921875 549.8125 815.9921875 378 c 4
 815.9921875 206.1875 693.774414062 76 553.9921875 76 c 4
 414.225585938 76 291.9921875 206.189453125 291.9921875 378 c 4
195.9921875 378 m 4
 195.9921875 163.216796875 351.352539062 -20 553.9921875 -20 c 4
 756.647460938 -20 911.9921875 163.21875 911.9921875 378 c 4
 911.9921875 592.78125 756.647460938 776 553.9921875 776 c 4
 351.352539062 776 195.9921875 592.783203125 195.9921875 378 c 4
196.0078125 -252 m 6
 196.0078125 -278.4921875 217.515625 -300 244.0078125 -300 c 4
 270.5 -300 292.0078125 -278.4921875 292.0078125 -252 c 6
 292.0078125 708 l 6
 292.0078125 734.4921875 270.5 756 244.0078125 756 c 6
 144.0078125 756 l 6
 117.515625 756 96.0078125 734.4921875 96.0078125 708 c 4
 96.0078125 681.5078125 117.515625 660 144.0078125 660 c 6
 196.0078125 660 l 5
 196.0078125 -252 l 6
144.0078125 -204 m 6
 117.515625 -204 96.0078125 -225.5078125 96.0078125 -252 c 4
 96.0078125 -278.4921875 117.515625 -300 144.0078125 -300 c 6
 384.0078125 -300 l 6
 410.5 -300 432.0078125 -278.4921875 432.0078125 -252 c 4
 432.0078125 -225.5078125 410.5 -204 384.0078125 -204 c 6
 144.0078125 -204 l 6
EndSplineSet
EndChar

StartChar: Q
Encoding: 81 81 23
Width: 1008
VWidth: 4000
Flags: HW
LayerCount: 2
Fore
SplineSet
504 76 m 0
 357.80859375 76 232 278.004882812 232 528 c 0
 232 777.991210938 357.806640625 980 504 980 c 0
 650.19140625 980 776 777.995117188 776 528 c 0
 776 278.008789062 650.193359375 76 504 76 c 0
504 1076 m 0
 298.434570312 1076 136 831.864257812 136 528 c 0
 136 224.15625 298.420898438 -20 504 -20 c 0
 709.565429688 -20 872 224.135742188 872 528 c 0
 872 831.84375 709.579101562 1076 504 1076 c 0
795.03125 -209.234375 m 0
 905.977539062 -209.234375 952 -76.556640625 952 -52 c 0
 952 -25.5078125 930.4921875 -4 904 -4 c 0
 881.766601562 -4 863.04296875 -19.1494140625 857.598632812 -39.6796875 c 0
 857.357421875 -40.615234375 836.029296875 -113.234375 795.03125 -113.234375 c 0
 784.579101562 -113.234375 770.165039062 -113.234375 751.158203125 -77.82421875 c 0
 738.017578125 -53.341796875 725.040039062 -15.017578125 710.0078125 30.998046875 c 0
 680.090820312 122.578125 665.267578125 165.658203125 643.083984375 205.346679688 c 0
 619.01953125 248.400390625 574.43359375 305.875 484 305.875 c 0
 420.122070312 305.875 372.44921875 269.759765625 341.208007812 236.63671875 c 0
 301.470703125 194.5078125 281.556640625 150.592773438 280.400390625 148.08984375 c 0
 265.814453125 116.517578125 288.953125 80 324 80 c 0
 343.321289062 80 359.991210938 91.4404296875 367.599609375 107.91015625 c 0
 378.034179688 130.978515625 426.263671875 209.875 484 209.875 c 0
 547.540039062 209.875 567.384765625 158.375976562 618.73046875 1.19921875 c 0
 650.494140625 -96.0341796875 676.677734375 -176.185546875 749.85546875 -201.833984375 c 0
 764.10546875 -206.827148438 779.359375 -209.234375 795.03125 -209.234375 c 0
EndSplineSet
EndChar

StartChar: a
Encoding: 97 97 24
Width: 1008
VWidth: 4000
Flags: HW
LayerCount: 2
Fore
SplineSet
212 588 m 1
 194 570 l 1
 176 588 l 1
 194 606 l 1
 212 588 l 1
116 588 m 0
 116 544.951171875 150.951171875 510 194 510 c 0
 237.048828125 510 272 544.951171875 272 588 c 0
 272 631.048828125 237.048828125 666 194 666 c 0
 150.951171875 666 116 631.048828125 116 588 c 0
163.998046875 588 m 0
 163.998046875 604.568359375 177.4296875 618 193.998046875 618 c 0
 210.567382812 618 223.998046875 604.568359375 223.998046875 588 c 0
 223.998046875 571.431640625 210.567382812 558 193.998046875 558 c 0
 177.4296875 558 163.998046875 571.431640625 163.998046875 588 c 0
774.296875 -20 m 0
 848.852539062 -20 912 39.8798828125 912 128 c 0
 912 154.4921875 890.4921875 176 864 176 c 0
 837.5078125 176 816 154.4921875 816 128 c 0
 816 98.5107421875 800.612304688 76 774.296875 76 c 0
 757.471679688 76 712 82.0966796875 712 148 c 2
 712 508 l 2
 712 599.001953125 674.39453125 674.401367188 609.834960938 721.228515625 c 0
 558.799804688 758.24609375 494.313476562 776 424 776 c 0
 345.224609375 776 240.001953125 759.951171875 174.2578125 705.80859375 c 0
 140.772460938 678.232421875 116 637.622070312 116 588 c 0
 116 561.5078125 137.5078125 540 164 540 c 0
 190.4921875 540 212 561.5078125 212 588 c 0
 212 605.044921875 218.338867188 617.767578125 235.223632812 631.672851562 c 0
 250.423828125 644.190429688 274.579101562 655.9921875 303.807617188 664.375976562 c 0
 340.241210938 674.826171875 383.552734375 680 424 680 c 0
 478.130859375 680 522.287109375 666.1484375 553.555664062 643.46875 c 0
 591.876953125 615.672851562 616 572.553710938 616 508 c 2
 616 148 l 2
 616 36.7001953125 694.364257812 -20 774.296875 -20 c 0
96 188 m 0
 96 77.576171875 195.504882812 -20 344 -20 c 0
 515.783203125 -20 579.896484375 48.6982421875 654.504882812 128.642578125 c 0
 668.365234375 143.494140625 682.524414062 158.655273438 697.934570312 174.065429688 c 0
 728.073242188 204.205078125 706.49609375 256 664 256 c 0
 650.75390625 256 638.75390625 250.623046875 630.065429688 241.934570312 c 0
 613.182617188 225.051757812 598.176757812 208.961914062 584.317382812 194.111328125 c 0
 513.65625 118.396484375 472.829101562 76 344 76 c 0
 253.294921875 76 192 127.614257812 192 188 c 0
 192 242.536132812 211.155273438 287.272460938 249.645507812 321.241210938 c 0
 280.76953125 348.708984375 327.012695312 370.633789062 391.364257812 380.5625 c 0
 506.239257812 398.282226562 580.5625 401.717773438 620.842773438 401.717773438 c 0
 649 401.717773438 663.568359375 400 664 400 c 0
 690.4921875 400 712 421.5078125 712 448 c 0
 712 472.450195312 693.6796875 492.654296875 670.030273438 495.624023438 c 0
 667.112304688 495.990234375 580.053710938 506.814453125 376.635742188 475.4375 c 0
 298.403320312 463.366210938 233.990234375 435.439453125 186.16796875 393.236328125 c 0
 125.9765625 340.116210938 96 266.796875 96 188 c 0
EndSplineSet
EndChar

StartChar: q
Encoding: 113 113 25
Width: 1008
VWidth: 4000
Flags: HW
LayerCount: 2
Fore
SplineSet
171.9921875 378 m 0
 171.9921875 549.810546875 294.225585938 680 433.9921875 680 c 0
 573.774414062 680 695.9921875 549.8125 695.9921875 378 c 0
 695.9921875 206.1875 573.774414062 76 433.9921875 76 c 0
 294.225585938 76 171.9921875 206.189453125 171.9921875 378 c 0
75.9921875 378 m 0
 75.9921875 163.216796875 231.352539062 -20 433.9921875 -20 c 0
 636.647460938 -20 791.9921875 163.21875 791.9921875 378 c 0
 791.9921875 592.78125 636.647460938 776 433.9921875 776 c 0
 231.352539062 776 75.9921875 592.783203125 75.9921875 378 c 0
792.0078125 708 m 2
 792.0078125 734.4921875 770.5 756 744.0078125 756 c 0
 717.515625 756 696.0078125 734.4921875 696.0078125 708 c 2
 696.0078125 -252 l 2
 696.0078125 -278.4921875 717.515625 -300 744.0078125 -300 c 0
 770.5 -300 792.0078125 -278.4921875 792.0078125 -252 c 2
 792.0078125 708 l 2
604.0078125 -204 m 2
 577.515625 -204 556.0078125 -225.5078125 556.0078125 -252 c 0
 556.0078125 -278.4921875 577.515625 -300 604.0078125 -300 c 2
 884.0078125 -300 l 2
 910.5 -300 932.0078125 -278.4921875 932.0078125 -252 c 0
 932.0078125 -225.5078125 910.5 -204 884.0078125 -204 c 2
 604.0078125 -204 l 2
EndSplineSet
EndChar

StartChar: y
Encoding: 121 121 26
Width: 1008
VWidth: 4000
Flags: HW
LayerCount: 2
Fore
SplineSet
191.9921875 -132 m 1
 173.9921875 -150 l 1
 155.9921875 -132 l 1
 173.9921875 -114 l 1
 191.9921875 -132 l 1
95.9921875 -132 m 0
 95.9921875 -175.048828125 130.943359375 -210 173.9921875 -210 c 0
 217.060546875 -210 251.9921875 -175.026367188 251.9921875 -132 c 0
 251.9921875 -88.9736328125 217.060546875 -54 173.9921875 -54 c 0
 130.943359375 -54 95.9921875 -88.951171875 95.9921875 -132 c 0
143.997070312 -132 m 0
 143.997070312 -115.431640625 157.427734375 -102 173.997070312 -102 c 0
 190.565429688 -102 203.997070312 -115.431640625 203.997070312 -132 c 0
 203.997070312 -148.568359375 190.565429688 -162 173.997070312 -162 c 0
 157.427734375 -162 143.997070312 -148.568359375 143.997070312 -132 c 0
164.0078125 756 m 2
 137.515625 756 116.0078125 734.4921875 116.0078125 708 c 0
 116.0078125 681.5078125 137.515625 660 164.0078125 660 c 2
 364.0078125 660 l 2
 390.5 660 412.0078125 681.5078125 412.0078125 708 c 0
 412.0078125 734.4921875 390.5 756 364.0078125 756 c 2
 164.0078125 756 l 2
644.0078125 756 m 2
 617.515625 756 596.0078125 734.4921875 596.0078125 708 c 0
 596.0078125 681.5078125 617.515625 660 644.0078125 660 c 2
 844.0078125 660 l 2
 870.5 660 892.0078125 681.5078125 892.0078125 708 c 0
 892.0078125 734.4921875 870.5 756 844.0078125 756 c 2
 644.0078125 756 l 2
96.0078125 -132 m 0
 96.0078125 -249.987304688 181.029296875 -320 299.8828125 -320 c 0
 364.370117188 -320 483.678710938 -299.147460938 539.94140625 -155.372070312 c 2
 829.446289062 692.5 l 2
 840.016601562 723.458007812 816.952148438 756 784.0078125 756 c 0
 762.938476562 756 745.021484375 742.395507812 738.569335938 723.5 c 2
 450.094726562 -121.35546875 l 2
 414.6953125 -210.724609375 347.53125 -224 299.8828125 -224 c 0
 273.850585938 -224 219.948242188 -218.552734375 200.309570312 -175.514648438 c 0
 195.397460938 -164.75 192.0078125 -150.711914062 192.0078125 -132 c 0
 192.0078125 -105.5078125 170.5 -84 144.0078125 -84 c 0
 117.515625 -84 96.0078125 -105.5078125 96.0078125 -132 c 0
244.0078125 756 m 0
 209.900390625 756 186.772460938 721.28125 199.52734375 689.9375 c 2
 493.15234375 -31.625 l 2
 500.294921875 -49.17578125 517.528320312 -61.5625 537.6328125 -61.5625 c 0
 571.740234375 -61.5625 594.868164062 -26.84375 582.11328125 4.5 c 2
 288.48828125 726.0625 l 2
 281.345703125 743.61328125 264.112304688 756 244.0078125 756 c 0
EndSplineSet
EndChar

StartChar: two
Encoding: 50 50 27
Width: 1008
VWidth: 4000
Flags: HWO
LayerCount: 2
Fore
SplineSet
501.595703125 980 m 0
 653.596679688 980 769.751953125 890.844726562 769.751953125 777.359375 c 0
 769.751953125 669.493164062 701.444335938 635.106445312 500.958984375 534.5078125 c 0
 316.641601562 442 155.634765625 306.138671875 114.240234375 55.8779296875 c 0
 114.240234375 53.314453125 113.595703125 50.6826171875 113.595703125 48 c 0
 113.595703125 21.5078125 135.103515625 0 161.595703125 0 c 0
 185.404296875 0 205.188476562 17.3720703125 208.951171875 40.1220703125 c 0
 238.549804688 219.065429688 338.286132812 345.44140625 543.919921875 448.6484375 c 0
 670.376953125 512.1015625 743.92578125 549.006835938 796.006835938 601.498046875 c 0
 849.861328125 655.778320312 865.751953125 715.8984375 865.751953125 777.359375 c 0
 865.751953125 944.038085938 709.713867188 1076 501.595703125 1076 c 0
 292.84375 1076 146.611328125 944.311523438 146.611328125 798.375 c 0
 146.611328125 771.8828125 168.119140625 750.375 194.611328125 750.375 c 0
 221.103515625 750.375 242.611328125 771.8828125 242.611328125 798.375 c 0
 242.611328125 891.553710938 349.913085938 980 501.595703125 980 c 0
661.548828125 77.71875 m 0
 570.185546875 77.71875 491.737304688 197.375 359.830078125 197.375 c 0
 295.764648438 197.375 242.40234375 172.75390625 203.486328125 147.30078125 c 0
 154.625976562 115.342773438 126.32421875 80.6796875 124.42578125 78.359375 c 0
 98.904296875 47.158203125 121.291015625 0 161.595703125 0 c 0
 176.57421875 0 189.959960938 6.8759765625 198.765625 17.640625 c 2
 198.765625 17.640625 217.95703125 42.060546875 255.935546875 66.9013671875 c 0
 285.0546875 85.9462890625 321.395507812 101.375 359.830078125 101.375 c 0
 455.295898438 101.375 532.504882812 -18.28125 661.548828125 -18.28125 c 0
 799.118164062 -18.28125 862.120117188 96.587890625 885.009765625 136.541992188 c 0
 890.435546875 146.013671875 894.423828125 152.974609375 894.423828125 165.734375 c 0
 894.423828125 192.2265625 872.916015625 213.734375 846.423828125 213.734375 c 0
 828.671875 213.734375 813.157226562 204.076171875 804.852539062 189.732421875 c 0
 777.778320312 142.96875 740.002929688 77.71875 661.548828125 77.71875 c 0
146.611328125 798.359375 m 0
 146.611328125 755.310546875 181.5625 720.359375 224.611328125 720.359375 c 0
 267.6796875 720.359375 302.611328125 755.333007812 302.611328125 798.359375 c 0
 302.611328125 841.40625 267.658203125 876.359375 224.611328125 876.359375 c 0
 181.584960938 876.359375 146.611328125 841.427734375 146.611328125 798.359375 c 0
EndSplineSet
EndChar

StartChar: three
Encoding: 51 51 28
Width: 1008
VWidth: 4000
Flags: HW
LayerCount: 2
Fore
SplineSet
474 -20 m 4
 723.1796875 -20 882 143.87890625 882 328 c 4
 882 427.92578125 846.150390625 527.454101562 756.24609375 594.146484375 c 4
 705.85546875 631.52734375 641.14453125 657.013671875 561.0078125 668.706054688 c 5
 860.295898438 974.431640625 l 6
 889.939453125 1004.71191406 868.258789062 1056 826 1056 c 6
 254 1056 l 6
 233.794921875 1056 216.489257812 1043.48925781 209.413085938 1025.79882812 c 6
 169.413085938 925.798828125 l 6
 156.889648438 894.490234375 180.012695312 860 214 860 c 4
 234.205078125 860 251.510742188 872.510742188 258.586914062 890.201171875 c 6
 286.505859375 960 l 5
 711.852539062 960 l 5
 419.704101562 661.568359375 l 6
 390.060546875 631.288085938 411.741210938 580 454 580 c 4
 547.756835938 580 786 565.04296875 786 328 c 4
 786 191.849609375 664.223632812 76 474 76 c 4
 326.334960938 76 222 151.520507812 222 258 c 4
 222 284.4921875 200.4921875 306 174 306 c 4
 147.5078125 306 126 284.4921875 126 258 c 4
 126 104.23046875 263.071289062 -20 474 -20 c 4
222 258 m 5
 204 240 l 5
 186 258 l 5
 204 276 l 5
 222 258 l 5
126 258 m 4
 126 214.931640625 160.973632812 180 204 180 c 4
 247.026367188 180 282 214.931640625 282 258 c 4
 282 301.048828125 247.048828125 336 204 336 c 4
 160.951171875 336 126 301.048828125 126 258 c 4
174 257.997070312 m 4
 174 274.565429688 187.431640625 287.997070312 204 287.997070312 c 4
 220.568359375 287.997070312 234 274.565429688 234 257.997070312 c 4
 234 241.428710938 220.568359375 227.997070312 204 227.997070312 c 4
 187.431640625 227.997070312 174 241.428710938 174 257.997070312 c 4
EndSplineSet
EndChar

StartChar: B
Encoding: 66 66 29
Width: 1008
VWidth: 4000
Flags: HW
LayerCount: 2
Fore
SplineSet
274 616 m 2
 247.5078125 616 226 594.4921875 226 568 c 0
 226 541.5078125 247.5078125 520 274 520 c 2
 594.28125 520 l 2
 620.7734375 520 642.28125 541.5078125 642.28125 568 c 0
 642.28125 594.4921875 620.7734375 616 594.28125 616 c 2
 274 616 l 2
154 96 m 2
 127.5078125 96 106 74.4921875 106 48 c 0
 106 21.5078125 127.5078125 0 154 0 c 2
 594 0 l 2
 620.4921875 0 642 21.5078125 642 48 c 0
 642 74.4921875 620.4921875 96 594 96 c 2
 154 96 l 2
466 1008 m 0
 466 981.5078125 487.5078125 960 514 960 c 0
 540.4921875 960 562 981.5078125 562 1008 c 0
 562 1034.4921875 540.4921875 1056 514 1056 c 0
 487.5078125 1056 466 1034.4921875 466 1008 c 0
574 960 m 2
 600.4921875 960 622 981.5078125 622 1008 c 0
 622 1034.4921875 600.4921875 1056 574 1056 c 2
 154 1056 l 2
 127.5078125 1056 106 1034.4921875 106 1008 c 0
 106 981.5078125 127.5078125 960 154 960 c 2
 574 960 l 2
574 1056 m 0
 547.5078125 1056 526 1034.4921875 526 1008 c 0
 526 981.5078125 547.5078125 960 574 960 c 0
 668.9296875 960 746 882.9296875 746 788 c 0
 746 693.0703125 668.9296875 616 574 616 c 0
 547.5078125 616 526 594.4921875 526 568 c 0
 526 541.5078125 547.5078125 520 574 520 c 0
 721.9140625 520 842 640.0859375 842 788 c 0
 842 935.9140625 721.9140625 1056 574 1056 c 0
594 616 m 0
 567.5078125 616 546 594.4921875 546 568 c 0
 546 541.5078125 567.5078125 520 594 520 c 0
 711.008789062 520 806 425.008789062 806 308 c 0
 806 190.991210938 711.008789062 96 594 96 c 0
 567.5078125 96 546 74.4921875 546 48 c 0
 546 21.5078125 567.5078125 0 594 0 c 0
 763.991210938 0 902 138.008789062 902 308 c 0
 902 477.991210938 763.991210938 616 594 616 c 0
206 68 m 2
 206 41.5078125 227.5078125 20 254 20 c 0
 280.4921875 20 302 41.5078125 302 68 c 2
 302 988 l 2
 302 1014.4921875 280.4921875 1036 254 1036 c 0
 227.5078125 1036 206 1014.4921875 206 988 c 2
 206 68 l 2
EndSplineSet
EndChar

StartChar: J
Encoding: 74 74 30
Width: 1008
VWidth: 4000
Flags: HW
LayerCount: 2
Fore
SplineSet
554 1056 m 6
 527.5078125 1056 506 1034.4921875 506 1008 c 4
 506 981.5078125 527.5078125 960 554 960 c 6
 854 960 l 6
 880.4921875 960 902 981.5078125 902 1008 c 4
 902 1034.4921875 880.4921875 1056 854 1056 c 6
 554 1056 l 6
106 288 m 6
 106 86.48828125 260.7265625 -20 434 -20 c 4
 602.265625 -20 762 124.140625 762 348 c 6
 762 988 l 6
 762 1014.4921875 740.4921875 1036 714 1036 c 4
 687.5078125 1036 666 1014.4921875 666 988 c 6
 666 348 l 6
 666 171.859375 545.734375 76 434 76 c 4
 340.7421875 76 202 120.715820312 202 288 c 6
 202 328 l 6
 202 354.4921875 180.4921875 376 154 376 c 4
 127.5078125 376 106 354.4921875 106 328 c 6
 106 288 l 6
202 328 m 5
 184 310 l 5
 166 328 l 5
 184 346 l 5
 202 328 l 5
106 328 m 4
 106 284.931640625 140.973632812 250 184 250 c 4
 227.026367188 250 262 284.931640625 262 328 c 4
 262 371.048828125 227.048828125 406 184 406 c 4
 140.951171875 406 106 371.048828125 106 328 c 4
154 327.99609375 m 4
 154 344.564453125 167.431640625 357.99609375 184 357.99609375 c 4
 200.568359375 357.99609375 214 344.564453125 214 327.99609375 c 4
 214 311.427734375 200.568359375 297.99609375 184 297.99609375 c 4
 167.431640625 297.99609375 154 311.427734375 154 327.99609375 c 4
EndSplineSet
EndChar

StartChar: R
Encoding: 82 82 31
Width: 1008
VWidth: 4000
Flags: HW
LayerCount: 2
Fore
SplineSet
105.1484375 96 m 6
 78.65625 96 57.1484375 74.4921875 57.1484375 48 c 4
 57.1484375 21.5078125 78.65625 0 105.1484375 0 c 6
 345.1484375 0 l 6
 371.640625 0 393.1484375 21.5078125 393.1484375 48 c 4
 393.1484375 74.4921875 371.640625 96 345.1484375 96 c 6
 105.1484375 96 l 6
177.1484375 48 m 6
 177.1484375 21.5078125 198.65625 0 225.1484375 0 c 4
 251.640625 0 273.1484375 21.5078125 273.1484375 48 c 6
 273.1484375 1008 l 6
 273.1484375 1034.4921875 251.640625 1056 225.1484375 1056 c 4
 198.65625 1056 177.1484375 1034.4921875 177.1484375 1008 c 6
 177.1484375 48 l 6
105.1484375 1056 m 6
 78.65625 1056 57.1484375 1034.4921875 57.1484375 1008 c 4
 57.1484375 981.5078125 78.65625 960 105.1484375 960 c 6
 585.1484375 960 l 6
 611.640625 960 633.1484375 981.5078125 633.1484375 1008 c 4
 633.1484375 1034.4921875 611.640625 1056 585.1484375 1056 c 6
 105.1484375 1056 l 6
233.7109375 644.5625 m 6
 207.21875 644.5625 185.7109375 623.0546875 185.7109375 596.5625 c 4
 185.7109375 570.0703125 207.21875 548.5625 233.7109375 548.5625 c 6
 585.1484375 548.5625 l 6
 611.640625 548.5625 633.1484375 570.0703125 633.1484375 596.5625 c 4
 633.1484375 623.0546875 611.640625 644.5625 585.1484375 644.5625 c 6
 233.7109375 644.5625 l 6
585.1484375 1056 m 4
 558.65625 1056 537.1484375 1034.4921875 537.1484375 1008 c 4
 537.1484375 981.5078125 558.65625 960 585.1484375 960 c 4
 684.948242188 960 760.0078125 886.043945312 760.0078125 802.28125 c 4
 760.0078125 718.518554688 684.948242188 644.5625 585.1484375 644.5625 c 4
 558.65625 644.5625 537.1484375 623.0546875 537.1484375 596.5625 c 4
 537.1484375 570.0703125 558.65625 548.5625 585.1484375 548.5625 c 4
 731.348632812 548.5625 856.0078125 658.981445312 856.0078125 802.28125 c 4
 856.0078125 945.581054688 731.348632812 1056 585.1484375 1056 c 4
829.751953125 96 m 5
 786.358398438 289.341796875 671.241210938 644.5625 259.4296875 644.5625 c 4
 232.9375 644.5625 211.4296875 623.0546875 211.4296875 596.5625 c 4
 211.4296875 570.0703125 232.9375 548.5625 259.4296875 548.5625 c 4
 533.388671875 548.5625 677.916992188 367.923828125 743.783203125 38.55078125 c 4
 748.177734375 16.5771484375 767.59375 0 790.8515625 0 c 6
 902.8515625 0 l 6
 929.34375 0 950.8515625 21.5078125 950.8515625 48 c 4
 950.8515625 74.4921875 929.34375 96 902.8515625 96 c 6
 829.751953125 96 l 5
EndSplineSet
EndChar

StartChar: Z
Encoding: 90 90 32
Width: 1008
VWidth: 4000
Flags: HW
LayerCount: 2
Fore
SplineSet
912.015625 288 m 6
 912.015625 314.4921875 890.5078125 336 864.015625 336 c 4
 837.5234375 336 816.015625 314.4921875 816.015625 288 c 6
 816.015625 96 l 5
 236.83203125 96 l 5
 863.2109375 980.299804688 l 6
 885.6015625 1011.91015625 862.84375 1056 824.015625 1056 c 6
 164.015625 1056 l 6
 137.5234375 1056 116.015625 1034.4921875 116.015625 1008 c 6
 116.015625 828 l 6
 116.015625 801.5078125 137.5234375 780 164.015625 780 c 4
 190.5078125 780 212.015625 801.5078125 212.015625 828 c 6
 212.015625 960 l 5
 731.19921875 960 l 5
 104.8203125 75.7001953125 l 6
 82.4296875 44.08984375 105.1875 0 144.015625 0 c 6
 864.015625 0 l 6
 890.5078125 0 912.015625 21.5078125 912.015625 48 c 6
 912.015625 288 l 6
EndSplineSet
EndChar

StartChar: b
Encoding: 98 98 33
Width: 1008
VWidth: 4000
Flags: HW
LayerCount: 2
Fore
SplineSet
302 378 m 4
 302 549.8125 424.217773438 680 564 680 c 4
 703.766601562 680 826 549.810546875 826 378 c 4
 826 206.189453125 703.766601562 76 564 76 c 4
 424.217773438 76 302 206.1875 302 378 c 4
206 378 m 4
 206 163.21875 361.344726562 -20 564 -20 c 4
 766.639648438 -20 922 163.216796875 922 378 c 4
 922 592.783203125 766.639648438 776 564 776 c 4
 361.344726562 776 206 592.78125 206 378 c 4
206 48 m 6
 206 21.5078125 227.5078125 0 254 0 c 4
 280.4921875 0 302 21.5078125 302 48 c 6
 302 1008 l 6
 302 1034.4921875 280.4921875 1056 254 1056 c 6
 134 1056 l 6
 107.5078125 1056 86 1034.4921875 86 1008 c 4
 86 981.5078125 107.5078125 960 134 960 c 6
 206 960 l 5
 206 48 l 6
EndSplineSet
EndChar

StartChar: j
Encoding: 106 106 34
Width: 1008
VWidth: 4000
Flags: HW
LayerCount: 2
Fore
SplineSet
246 -72 m 4
 246 -216.729492188 345.9375 -320 494 -320 c 4
 585.001953125 -320 660.401367188 -282.39453125 707.228515625 -217.834960938 c 4
 744.24609375 -166.799804688 762 -102.313476562 762 -32 c 6
 762 708 l 6
 762 734.4921875 740.4921875 756 714 756 c 6
 494 756 l 6
 467.5078125 756 446 734.4921875 446 708 c 4
 446 681.5078125 467.5078125 660 494 660 c 6
 666 660 l 5
 666 -32 l 6
 666 -86.130859375 652.1484375 -130.287109375 629.46875 -161.555664062 c 4
 601.672851562 -199.876953125 558.553710938 -224 494 -224 c 4
 450.244140625 -224 416.145507812 -211.224609375 391.749023438 -191.078125 c 4
 361.572265625 -166.157226562 342 -126.677734375 342 -72 c 4
 342 -45.5078125 320.4921875 -24 294 -24 c 4
 267.5078125 -24 246 -45.5078125 246 -72 c 4
702 988 m 5
 684 970 l 5
 666 988 l 5
 684 1006 l 5
 702 988 l 5
606 988 m 4
 606 944.953125 640.953125 910 684 910 c 4
 727.026367188 910 762 944.931640625 762 988 c 4
 762 1031.04882812 727.048828125 1066 684 1066 c 4
 640.931640625 1066 606 1031.02636719 606 988 c 4
653.9921875 987.997070312 m 4
 653.9921875 1004.56542969 667.423828125 1017.99707031 683.9921875 1017.99707031 c 4
 700.560546875 1017.99707031 713.9921875 1004.56542969 713.9921875 987.997070312 c 4
 713.9921875 971.427734375 700.560546875 957.997070312 683.9921875 957.997070312 c 4
 667.423828125 957.997070312 653.9921875 971.427734375 653.9921875 987.997070312 c 4
342 -72 m 5
 324 -90 l 5
 306 -72 l 5
 324 -54 l 5
 342 -72 l 5
246 -72 m 4
 246 -115.046875 280.953125 -150 324 -150 c 4
 367.026367188 -150 402 -115.068359375 402 -72 c 4
 402 -28.951171875 367.048828125 6 324 6 c 4
 280.931640625 6 246 -28.9736328125 246 -72 c 4
293.9921875 -72.0029296875 m 4
 293.9921875 -55.4345703125 307.423828125 -42.0029296875 323.9921875 -42.0029296875 c 4
 340.560546875 -42.0029296875 353.9921875 -55.4345703125 353.9921875 -72.0029296875 c 4
 353.9921875 -88.5712890625 340.560546875 -102.002929688 323.9921875 -102.002929688 c 4
 307.423828125 -102.002929688 293.9921875 -88.5712890625 293.9921875 -72.0029296875 c 4
EndSplineSet
EndChar

StartChar: r
Encoding: 114 114 35
Width: 1008
VWidth: 4000
Flags: HW
LayerCount: 2
Fore
SplineSet
782 628 m 5
 764 610 l 5
 746 628 l 5
 764 646 l 5
 782 628 l 5
686 628 m 4
 686 584.953125 720.953125 550 764 550 c 4
 807.026367188 550 842 584.931640625 842 628 c 4
 842 671.048828125 807.048828125 706 764 706 c 4
 720.931640625 706 686 671.026367188 686 628 c 4
733.9921875 627.99609375 m 4
 733.9921875 644.565429688 747.423828125 657.99609375 763.9921875 657.99609375 c 4
 780.560546875 657.99609375 793.9921875 644.565429688 793.9921875 627.99609375 c 4
 793.9921875 611.427734375 780.560546875 597.99609375 763.9921875 597.99609375 c 4
 747.423828125 597.99609375 733.9921875 611.427734375 733.9921875 627.99609375 c 4
214 96 m 6
 187.5078125 96 166 74.4921875 166 48 c 4
 166 21.5078125 187.5078125 0 214 0 c 6
 494 0 l 6
 520.4921875 0 542 21.5078125 542 48 c 4
 542 74.4921875 520.4921875 96 494 96 c 6
 214 96 l 6
286 48 m 6
 286 21.5078125 307.5078125 0 334 0 c 4
 360.4921875 0 382 21.5078125 382 48 c 6
 382 708 l 6
 382 734.4921875 360.4921875 756 334 756 c 6
 214 756 l 6
 187.5078125 756 166 734.4921875 166 708 c 4
 166 681.5078125 187.5078125 660 214 660 c 6
 286 660 l 5
 286 48 l 6
842 628 m 4
 842 703.268554688 778.487304688 776 634 776 c 4
 485.41796875 776 409.252929688 699.21484375 296.466796875 557.909179688 c 4
 271.491210938 526.619140625 293.953125 480 334 480 c 4
 349.186523438 480 362.735351562 487.067382812 371.533203125 498.090820312 c 4
 492.5 649.64453125 542.008789062 680 634 680 c 4
 653.296875 680 710.602539062 677.728515625 736.090820312 651.788085938 c 4
 743.268554688 644.482421875 746 637.814453125 746 628 c 4
 746 601.5078125 767.5078125 580 794 580 c 4
 820.4921875 580 842 601.5078125 842 628 c 4
EndSplineSet
EndChar

StartChar: z
Encoding: 122 122 36
Width: 1008
VWidth: 4000
Flags: HW
LayerCount: 2
Fore
SplineSet
901.9921875 192 m 6
 901.9921875 218.4921875 880.484375 240 853.9921875 240 c 4
 827.5 240 805.9921875 218.4921875 805.9921875 192 c 6
 805.9921875 96 l 5
 272.3515625 96 l 5
 867.412109375 673.55859375 l 6
 898.249023438 703.48828125 876.82421875 756 833.9921875 756 c 6
 193.9921875 756 l 6
 167.5 756 145.9921875 734.4921875 145.9921875 708 c 6
 145.9921875 608 l 6
 145.9921875 581.5078125 167.5 560 193.9921875 560 c 4
 220.484375 560 241.9921875 581.5078125 241.9921875 608 c 6
 241.9921875 660 l 5
 715.6328125 660 l 5
 120.572265625 82.44140625 l 6
 89.7353515625 52.51171875 111.16015625 0 153.9921875 0 c 6
 853.9921875 0 l 6
 880.484375 0 901.9921875 21.5078125 901.9921875 48 c 6
 901.9921875 192 l 6
EndSplineSet
EndChar

StartChar: plus
Encoding: 43 43 37
Width: 1008
VWidth: 4000
Flags: HW
LayerCount: 2
Fore
SplineSet
184 456 m 6
 157.5078125 456 136 434.4921875 136 408 c 4
 136 381.5078125 157.5078125 360 184 360 c 6
 824 360 l 6
 850.4921875 360 872 381.5078125 872 408 c 4
 872 434.4921875 850.4921875 456 824 456 c 6
 184 456 l 6
456 88 m 6
 456 61.5078125 477.5078125 40 504 40 c 4
 530.4921875 40 552 61.5078125 552 88 c 6
 552 728 l 6
 552 754.4921875 530.4921875 776 504 776 c 4
 477.5078125 776 456 754.4921875 456 728 c 6
 456 88 l 6
EndSplineSet
EndChar

StartChar: semicolon
Encoding: 59 59 38
Width: 1008
VWidth: 4000
Flags: HW
LayerCount: 2
Fore
SplineSet
505.946289062 78 m 0
 505.946289062 -0.5244140625 400.328125 -89.560546875 366.799804688 -112.418945312 c 0
 328.106445312 -139.020507812 347.190429688 -200 393.946289062 -200 c 0
 404.018554688 -200 413.370117188 -196.891601562 421.092773438 -191.581054688 c 0
 434.55078125 -182.329101562 601.946289062 -64.3828125 601.946289062 78 c 0
 601.946289062 104.4921875 580.438476562 126 553.946289062 126 c 0
 527.454101562 126 505.946289062 104.4921875 505.946289062 78 c 0
501.946289062 678 m 2
 504.370117188 683.55078125 508.291992188 676 503.946289062 676 c 0
 502.806640625 676 501.946289062 678 501.946289062 678 c 2
405.946289062 678 m 0
 405.946289062 623.889648438 449.8671875 580 503.946289062 580 c 0
 558.025390625 580 601.946289062 623.889648438 601.946289062 678 c 0
 601.946289062 732.091796875 558.038085938 776 503.946289062 776 c 0
 449.854492188 776 405.946289062 732.091796875 405.946289062 678 c 0
453.946289062 677.997070312 m 0
 453.946289062 705.611328125 476.33203125 727.997070312 503.946289062 727.997070312 c 0
 531.560546875 727.997070312 553.946289062 705.611328125 553.946289062 677.997070312 c 0
 553.946289062 650.3828125 531.560546875 627.997070312 503.946289062 627.997070312 c 0
 476.33203125 627.997070312 453.946289062 650.3828125 453.946289062 677.997070312 c 0
501.946289062 78 m 2
 504.370117188 83.55078125 508.291992188 76 503.946289062 76 c 0
 502.806640625 76 501.946289062 78 501.946289062 78 c 2
405.946289062 78 m 0
 405.946289062 23.8896484375 449.8671875 -20 503.946289062 -20 c 0
 558.025390625 -20 601.946289062 23.8896484375 601.946289062 78 c 0
 601.946289062 132.091796875 558.038085938 176 503.946289062 176 c 0
 449.854492188 176 405.946289062 132.091796875 405.946289062 78 c 0
453.946289062 77.9970703125 m 0
 453.946289062 105.611328125 476.33203125 127.997070312 503.946289062 127.997070312 c 0
 531.560546875 127.997070312 553.946289062 105.611328125 553.946289062 77.9970703125 c 0
 553.946289062 50.3828125 531.560546875 27.9970703125 503.946289062 27.9970703125 c 0
 476.33203125 27.9970703125 453.946289062 50.3828125 453.946289062 77.9970703125 c 0
EndSplineSet
EndChar

StartChar: C
Encoding: 67 67 39
Width: 1008
VWidth: 4000
Flags: HW
LayerCount: 2
Fore
SplineSet
145.983398438 528 m 4
 145.983398438 222.09375 312.311523438 -20 533.983398438 -20 c 4
 712.641601562 -20 804.943359375 130.602539062 858.80859375 270.809570312 c 4
 870.803710938 302.033203125 847.692382812 336 813.983398438 336 c 4
 793.547851562 336 776.078125 323.202148438 769.158203125 305.190429688 c 4
 717.0859375 169.647460938 647.168945312 76 533.983398438 76 c 4
 367.041015625 76 241.983398438 280.879882812 241.983398438 528 c 4
 241.983398438 625.420898438 256.735351562 715.338867188 283.268554688 788.180664062 c 4
 310.42578125 862.735351562 372.45703125 980 493.983398438 980 c 4
 545.569335938 980 640.694335938 967.875 714.15234375 844.57421875 c 4
 737.836914062 804.8203125 755.501953125 759.48046875 767.704101562 715.228515625 c 4
 773.301757812 694.927734375 791.913085938 680 813.983398438 680 c 4
 845.711914062 680 868.657226562 710.331054688 860.262695312 740.771484375 c 4
 831.42578125 845.346679688 779.049804688 946.645507812 694.838867188 1010.25976562 c 4
 641.470703125 1050.57519531 574.061523438 1076 493.983398438 1076 c 4
 282.74609375 1076 145.983398438 843.873046875 145.983398438 528 c 4
861.983398438 1008 m 6
 861.983398438 1034.4921875 840.475585938 1056 813.983398438 1056 c 4
 787.491210938 1056 765.983398438 1034.4921875 765.983398438 1008 c 6
 765.983398438 728 l 6
 765.983398438 701.5078125 787.491210938 680 813.983398438 680 c 4
 840.475585938 680 861.983398438 701.5078125 861.983398438 728 c 6
 861.983398438 1008 l 6
EndSplineSet
EndChar

StartChar: K
Encoding: 75 75 40
Width: 1008
VWidth: 4000
Flags: HW
LayerCount: 2
Fore
SplineSet
124 1056 m 6
 97.5078125 1056 76 1034.4921875 76 1008 c 4
 76 981.5078125 97.5078125 960 124 960 c 6
 324 960 l 6
 350.4921875 960 372 981.5078125 372 1008 c 4
 372 1034.4921875 350.4921875 1056 324 1056 c 6
 124 1056 l 6
124 96 m 6
 97.5078125 96 76 74.4921875 76 48 c 4
 76 21.5078125 97.5078125 0 124 0 c 6
 324 0 l 6
 350.4921875 0 372 21.5078125 372 48 c 4
 372 74.4921875 350.4921875 96 324 96 c 6
 124 96 l 6
176 68 m 6
 176 41.5078125 197.5078125 20 224 20 c 4
 250.4921875 20 272 41.5078125 272 68 c 6
 272 1008 l 6
 272 1034.4921875 250.4921875 1056 224 1056 c 4
 197.5078125 1056 176 1034.4921875 176 1008 c 6
 176 68 l 6
664 1056 m 6
 637.5078125 1056 616 1034.4921875 616 1008 c 4
 616 981.5078125 637.5078125 960 664 960 c 6
 864 960 l 6
 890.4921875 960 912 981.5078125 912 1008 c 4
 912 1034.4921875 890.4921875 1056 864 1056 c 6
 664 1056 l 6
208.9453125 420.776367188 m 6
 180.358398438 390.217773438 202.245117188 340 244 340 c 4
 257.825195312 340 270.29296875 345.857421875 279.0546875 355.223632812 c 6
 859.0546875 975.223632812 l 6
 887.641601562 1005.78222656 865.754882812 1056 824 1056 c 4
 810.174804688 1056 797.70703125 1050.14257812 788.9453125 1040.77636719 c 6
 208.9453125 420.776367188 l 6
684 96 m 6
 657.5078125 96 636 74.4921875 636 48 c 4
 636 21.5078125 657.5078125 0 684 0 c 6
 884 0 l 6
 910.4921875 0 932 21.5078125 932 48 c 4
 932 74.4921875 910.4921875 96 884 96 c 6
 684 96 l 6
804 20 m 4
 841.134765625 20 864.157226562 60.6396484375 845.32421875 92.4189453125 c 6
 525.32421875 632.418945312 l 6
 516.961914062 646.530273438 501.578125 656 484 656 c 4
 446.865234375 656 423.842773438 615.360351562 442.67578125 583.581054688 c 6
 762.67578125 43.5810546875 l 6
 771.038085938 29.4697265625 786.421875 20 804 20 c 4
EndSplineSet
EndChar

StartChar: S
Encoding: 83 83 41
Width: 1008
VWidth: 4000
Flags: HW
LayerCount: 2
Fore
SplineSet
109.703125 48 m 6
 109.703125 21.5078125 131.2109375 0 157.703125 0 c 4
 184.1953125 0 205.703125 21.5078125 205.703125 48 c 6
 205.703125 288 l 6
 205.703125 314.4921875 184.1953125 336 157.703125 336 c 4
 131.2109375 336 109.703125 314.4921875 109.703125 288 c 6
 109.703125 48 l 6
789.703125 828 m 6
 789.703125 801.5078125 811.2109375 780 837.703125 780 c 4
 864.1953125 780 885.703125 801.5078125 885.703125 828 c 6
 885.703125 1008 l 6
 885.703125 1034.4921875 864.1953125 1056 837.703125 1056 c 4
 811.2109375 1056 789.703125 1034.4921875 789.703125 1008 c 6
 789.703125 828 l 6
802.296875 285.703125 m 4
 802.296875 146.22265625 683.811523438 76 542.296875 76 c 4
 385.578125 76 306.275390625 176.788085938 195.4453125 317.645507812 c 4
 167.357421875 353.34375 109.703125 333.221679688 109.703125 288 c 4
 109.703125 271.408203125 115.627929688 263.870117188 127.3984375 248.895507812 c 4
 227.956054688 120.9609375 336.387695312 -20 542.296875 -20 c 4
 760.668945312 -20 898.296875 111.813476562 898.296875 285.703125 c 4
 898.296875 344.819335938 890.108398438 421.751953125 816.325195312 490.918945312 c 4
 762.375976562 541.493164062 679.84375 583.474609375 551.856445312 620.963867188 c 4
 328.494140625 686.377929688 290.458984375 739.759765625 276.791992188 776.794921875 c 4
 269.791992188 795.766601562 267.610351562 817.76171875 268.161132812 843.828125 c 4
 269.028320312 884.897460938 288.341796875 933.521484375 363.265625 961.504882812 c 4
 462.301757812 998.495117188 682.025390625 996.30859375 796.392578125 803.55859375 c 4
 804.7578125 789.458984375 820.134765625 780 837.703125 780 c 4
 874.848632812 780 897.870117188 820.663085938 879.013671875 852.44140625 c 4
 742.592773438 1082.36230469 476.241210938 1106.19726562 329.716796875 1051.47070312 c 4
 290.428710938 1036.796875 255.358398438 1015.16601562 228.020507812 985.754882812 c 4
 193.6640625 948.791992188 173.334960938 900.446289062 172.182617188 845.890625 c 4
 170.684570312 774.96484375 184.642578125 702.93359375 266.250976562 641.129882812 c 4
 322.163085938 598.787109375 403.158203125 564.459960938 524.862304688 528.817382812 c 4
 735.9140625 466.997070312 775.97265625 400.521484375 790.11328125 364.9296875 c 4
 799.3828125 341.59765625 802.296875 315.896484375 802.296875 285.703125 c 4
EndSplineSet
EndChar

StartChar: bracketleft
Encoding: 91 91 42
Width: 1008
VWidth: 4000
Flags: HW
LayerCount: 2
Fore
SplineSet
604 960 m 6
 630.4921875 960 652 981.5078125 652 1008 c 4
 652 1034.4921875 630.4921875 1056 604 1056 c 6
 404 1056 l 6
 377.5078125 1056 356 1034.4921875 356 1008 c 6
 356 -252 l 6
 356 -278.4921875 377.5078125 -300 404 -300 c 6
 604 -300 l 6
 630.4921875 -300 652 -278.4921875 652 -252 c 4
 652 -225.5078125 630.4921875 -204 604 -204 c 6
 452 -204 l 5
 452 960 l 5
 604 960 l 6
EndSplineSet
EndChar

StartChar: c
Encoding: 99 99 43
Width: 1008
VWidth: 4000
Flags: HW
LayerCount: 2
Fore
SplineSet
789.1953125 568 m 1
 771.1953125 550 l 1
 753.1953125 568 l 1
 771.1953125 586 l 1
 789.1953125 568 l 1
693.1953125 568 m 0
 693.1953125 524.953125 728.1484375 490 771.1953125 490 c 0
 814.221679688 490 849.1953125 524.931640625 849.1953125 568 c 0
 849.1953125 611.048828125 814.244140625 646 771.1953125 646 c 0
 728.126953125 646 693.1953125 611.026367188 693.1953125 568 c 0
741.1875 567.997070312 m 0
 741.1875 584.56640625 754.619140625 597.997070312 771.1875 597.997070312 c 0
 787.755859375 597.997070312 801.1875 584.56640625 801.1875 567.997070312 c 0
 801.1875 551.428710938 787.755859375 537.997070312 771.1875 537.997070312 c 0
 754.619140625 537.997070312 741.1875 551.428710938 741.1875 567.997070312 c 0
530.0390625 -20 m 0
 681.959960938 -16.4248046875 832.381835938 84.32421875 846.21484375 268.421875 c 0
 847.990234375 299.887695312 823.330078125 320.0625 798.3515625 320.0625 c 0
 773.083984375 320.0625 752.350585938 300.497070312 750.48828125 275.703125 c 0
 739.90234375 134.831054688 621.282226562 78.1474609375 530.0390625 76 c 0
 381.01171875 76 254.8046875 213.348632812 254.8046875 385.84375 c 0
 254.8046875 551.416992188 365.462890625 679.513671875 521.346679688 680 c 0
 561.116210938 680.001953125 606.538085938 672.5234375 646.348632812 658.838867188 c 0
 665.12109375 652.38671875 753.1953125 619.375 753.1953125 568 c 0
 753.1953125 541.5078125 774.703125 520 801.1953125 520 c 0
 827.6875 520 849.1953125 541.5078125 849.1953125 568 c 0
 849.1953125 701.840820312 666.89453125 776.001953125 522.31640625 776.001953125 c 0
 314.625 775.356445312 158.8046875 607.317382812 158.8046875 385.84375 c 0
 158.8046875 169.338867188 318.91015625 -20 530.0390625 -20 c 0
EndSplineSet
EndChar

StartChar: cedilla
Encoding: 184 184 44
Width: 1008
VWidth: 4000
Flags: HW
LayerCount: 2
Fore
SplineSet
624.677734375 -244.681640625 m 4
 664.783203125 -195.552734375 669.302734375 -85.462890625 534.315429688 -53.1005859375 c 5
 564.15625 6.580078125 l 6
 579.995117188 38.259765625 556.870117188 76 521.1953125 76 c 4
 502.3984375 76 486.111328125 65.1728515625 478.234375 49.419921875 c 6
 418.234375 -70.580078125 l 6
 402.395507812 -102.259765625 425.520507812 -140 461.1953125 -140 c 4
 488.064453125 -140.126953125 539.970703125 -149.095703125 551.522460938 -165.844726562 c 4
 554.432617188 -170.065429688 553.70703125 -179.836914062 550.278320312 -184.037109375 c 4
 548.134765625 -186.663085938 537.786132812 -193.975585938 514.044921875 -198.3359375 c 4
 485.516601562 -203.575195312 444.34375 -204 401.1953125 -204 c 4
 374.703125 -204 353.1953125 -225.5078125 353.1953125 -252 c 4
 353.1953125 -278.4921875 374.703125 -300 401.1953125 -300 c 4
 492.877929688 -300 579.51953125 -300 624.677734375 -244.681640625 c 4
EndSplineSet
EndChar

StartChar: k
Encoding: 107 107 45
Width: 1008
VWidth: 4000
Flags: HW
LayerCount: 2
Fore
SplineSet
137.125 96 m 6
 110.6328125 96 89.125 74.4921875 89.125 48 c 4
 89.125 21.5078125 110.6328125 0 137.125 0 c 6
 337.125 0 l 6
 363.6171875 0 385.125 21.5078125 385.125 48 c 4
 385.125 74.4921875 363.6171875 96 337.125 96 c 6
 137.125 96 l 6
189.125 68 m 6
 189.125 41.5078125 210.6328125 20 237.125 20 c 4
 263.6171875 20 285.125 41.5078125 285.125 68 c 6
 285.125 1008 l 6
 285.125 1034.4921875 263.6171875 1056 237.125 1056 c 6
 137.125 1056 l 6
 110.6328125 1056 89.125 1034.4921875 89.125 1008 c 4
 89.125 981.5078125 110.6328125 960 137.125 960 c 6
 189.125 960 l 5
 189.125 68 l 6
670.875 96 m 6
 644.3828125 96 622.875 74.4921875 622.875 48 c 4
 622.875 21.5078125 644.3828125 0 670.875 0 c 6
 870.875 0 l 6
 897.3671875 0 918.875 21.5078125 918.875 48 c 4
 918.875 74.4921875 897.3671875 96 870.875 96 c 6
 670.875 96 l 6
577.125 756 m 6
 550.6328125 756 529.125 734.4921875 529.125 708 c 4
 529.125 681.5078125 550.6328125 660 577.125 660 c 6
 797.125 660 l 6
 823.6171875 660 845.125 681.5078125 845.125 708 c 4
 845.125 734.4921875 823.6171875 756 797.125 756 c 6
 577.125 756 l 6
223.92578125 282.654296875 m 6
 192.791992188 252.818359375 214.149414062 200 257.125 200 c 4
 270.000976562 200 281.700195312 205.081054688 290.32421875 213.345703125 c 6
 770.32421875 673.345703125 l 6
 801.458007812 703.181640625 780.100585938 756 737.125 756 c 4
 724.249023438 756 712.549804688 750.918945312 703.92578125 742.654296875 c 6
 223.92578125 282.654296875 l 6
749.546875 39.7890625 m 6
 776.805664062 2.3515625 836.375 21.8935546875 836.375 68 c 4
 836.375 78.5390625 832.970703125 88.2900390625 827.203125 96.2109375 c 6
 535.953125 496.2109375 l 6
 508.694335938 533.6484375 449.125 514.106445312 449.125 468 c 4
 449.125 457.4609375 452.529296875 447.709960938 458.296875 439.7890625 c 6
 749.546875 39.7890625 l 6
EndSplineSet
EndChar

StartChar: s
Encoding: 115 115 46
Width: 1008
VWidth: 4000
Flags: HW
LayerCount: 2
Fore
SplineSet
766.016601562 556 m 6
 766.016601562 529.5078125 787.524414062 508 814.016601562 508 c 4
 840.508789062 508 862.016601562 529.5078125 862.016601562 556 c 6
 862.016601562 708 l 6
 862.016601562 734.4921875 840.508789062 756 814.016601562 756 c 4
 787.524414062 756 766.016601562 734.4921875 766.016601562 708 c 6
 766.016601562 556 l 6
126.016601562 48 m 6
 126.016601562 21.5078125 147.524414062 0 174.016601562 0 c 4
 200.508789062 0 222.016601562 21.5078125 222.016601562 48 c 6
 222.016601562 220 l 6
 222.016601562 246.4921875 200.508789062 268 174.016601562 268 c 4
 147.524414062 268 126.016601562 246.4921875 126.016601562 220 c 6
 126.016601562 48 l 6
775.592773438 527.241210938 m 4
 803.176757812 490.461914062 862.016601562 510.23046875 862.016601562 556 c 4
 862.016601562 566.783203125 858.453125 576.741210938 852.440429688 584.758789062 c 4
 771.362304688 692.868164062 668.94140625 776 434.016601562 776 c 4
 387.73828125 776 241.568359375 774.466796875 186.352539062 662.755859375 c 4
 172.524414062 634.779296875 166.016601562 602.845703125 166.016601562 568 c 4
 166.016601562 515.58203125 189.5234375 447.205078125 293.657226562 401.490234375 c 4
 350.74609375 376.427734375 423.555664062 361.030273438 513.189453125 352.127929688 c 4
 581.807617188 345.30859375 708.26953125 324.776367188 762.896484375 264.321289062 c 4
 779.44921875 246.001953125 786.016601562 228.211914062 786.016601562 208 c 4
 786.016601562 154.188476562 760.362304688 125.286132812 723.153320312 106.375 c 4
 686.461914062 87.7265625 629.4140625 76 554.016601562 76 c 4
 350.830078125 76 287.059570312 136.62109375 214.022460938 246.51953125 c 4
 205.419921875 259.461914062 190.708007812 268 174.016601562 268 c 4
 135.811523438 268 112.9375 225.189453125 134.010742188 193.48046875 c 4
 224.850585938 56.796875 317.806640625 -20 554.016601562 -20 c 4
 615.76171875 -20 792.461914062 -16.1943359375 858.416992188 107.55859375 c 4
 874.42578125 137.596679688 882.016601562 171.688476562 882.016601562 208 c 4
 882.016601562 240.538085938 878.096679688 412.342773438 522.78125 447.653320312 c 4
 440.3515625 455.840820312 305.08203125 477.928710938 270.514648438 535.854492188 c 4
 264.834960938 545.373046875 262.016601562 555.24609375 262.016601562 568 c 4
 262.016601562 624.176757812 287.40234375 645.2421875 310.185546875 657.26171875 c 4
 337.1484375 671.486328125 379.666992188 680 434.016601562 680 c 4
 639.823242188 680 713.46484375 610.083984375 775.592773438 527.241210938 c 4
EndSplineSet
EndChar

StartChar: braceleft
Encoding: 123 123 47
Width: 1008
VWidth: 4000
Flags: HW
LayerCount: 2
Fore
SplineSet
704 1026.671875 m 4
 557.459960938 1026.671875 456 925.595703125 456 818.671875 c 6
 456 568 l 6
 456 561.052734375 456 552.670898438 435.232421875 537.088867188 c 6
 275.240234375 417.094726562 l 6
 238.461914062 389.510742188 258.23046875 330.671875 304 330.671875 c 4
 314.784179688 330.671875 324.7421875 334.235351562 332.759765625 340.249023438 c 6
 492.767578125 460.254882812 l 6
 512.58203125 475.122070312 552 508.012695312 552 568 c 6
 552 818.671875 l 6
 552 871.313476562 610.342773438 930.671875 704 930.671875 c 4
 730.4921875 930.671875 752 952.1796875 752 978.671875 c 4
 752 1005.1640625 730.4921875 1026.671875 704 1026.671875 c 4
704 -173.328125 m 4
 610.345703125 -173.328125 552 -113.97265625 552 -61.328125 c 6
 552 189.34375 l 6
 552 249.297851562 512.629882812 282.185546875 492.767578125 297.088867188 c 6
 332.759765625 417.094726562 l 6
 301.279296875 440.705078125 256 418.075195312 256 378.671875 c 4
 256 362.963867188 263.561523438 349.0078125 275.240234375 340.249023438 c 6
 435.232421875 220.254882812 l 6
 443.71484375 213.890625 448.772460938 208.590820312 451.478515625 204.686523438 c 4
 454.717773438 200.014648438 456 196.848632812 456 189.34375 c 6
 456 -61.328125 l 6
 456 -168.256835938 557.46484375 -269.328125 704 -269.328125 c 4
 730.4921875 -269.328125 752 -247.8203125 752 -221.328125 c 4
 752 -194.8359375 730.4921875 -173.328125 704 -173.328125 c 4
EndSplineSet
EndChar

StartChar: dollar
Encoding: 36 36 48
Width: 1008
VWidth: 4000
Flags: HW
LayerCount: 2
Fore
SplineSet
508.015625 -20 m 4
 763.725585938 -20 909.859375 109.2421875 909.859375 271.34375 c 4
 909.859375 447.594726562 780.739257812 536.276367188 512.469726562 598.330078125 c 4
 267.583007812 654.98828125 234.264648438 711.5703125 222.44921875 743.70703125 c 4
 216.666015625 759.434570312 214.171875 778.209960938 214.171875 801.890625 c 4
 214.171875 836.928710938 220.365234375 917.02734375 341.791015625 957.65234375 c 4
 385.120117188 972.1484375 439.326171875 980 500.984375 980 c 4
 658.41015625 980 748.80078125 910.708007812 808.438476562 794.084960938 c 4
 816.38671875 778.541015625 832.560546875 767.890625 851.203125 767.890625 c 4
 887.0625 767.890625 910.180664062 805.993164062 893.967773438 837.696289062 c 4
 795.544921875 1030.16894531 640.477539062 1076 500.984375 1076 c 4
 436.877929688 1076 277.920898438 1069.54199219 184.276367188 972.248046875 c 4
 141.79296875 928.109375 118.171875 869.40625 118.171875 801.890625 c 4
 118.171875 738.859375 131.096679688 667.364257812 214.465820312 608.538085938 c 4
 273.0390625 567.208007812 358.928710938 535.30078125 490.780273438 504.794921875 c 4
 737.13671875 447.809570312 785.33203125 380.96875 802.358398438 338.9609375 c 4
 810.26171875 319.462890625 813.859375 297.485351562 813.859375 271.34375 c 4
 813.859375 148.568359375 684.376953125 76 508.015625 76 c 4
 336.092773438 76 194.140625 164.296875 194.140625 324.703125 c 4
 194.140625 351.1953125 172.6328125 372.703125 146.140625 372.703125 c 4
 119.6484375 372.703125 98.140625 351.1953125 98.140625 324.703125 c 4
 98.140625 120.556640625 268.88671875 -20 508.015625 -20 c 4
345.140625 -152 m 6
 345.140625 -178.4921875 366.6484375 -200 393.140625 -200 c 4
 419.6328125 -200 441.140625 -178.4921875 441.140625 -152 c 6
 441.140625 1130.265625 l 6
 441.140625 1156.7578125 419.6328125 1178.265625 393.140625 1178.265625 c 4
 366.6484375 1178.265625 345.140625 1156.7578125 345.140625 1130.265625 c 6
 345.140625 -152 l 6
569.140625 -152 m 6
 569.140625 -178.4921875 590.6484375 -200 617.140625 -200 c 4
 643.6328125 -200 665.140625 -178.4921875 665.140625 -152 c 6
 665.140625 1130.265625 l 6
 665.140625 1156.7578125 643.6328125 1178.265625 617.140625 1178.265625 c 4
 590.6484375 1178.265625 569.140625 1156.7578125 569.140625 1130.265625 c 6
 569.140625 -152 l 6
EndSplineSet
EndChar

StartChar: comma
Encoding: 44 44 49
Width: 1008
VWidth: 4000
Flags: HW
LayerCount: 2
Fore
SplineSet
601.946289062 78 m 0
 601.946289062 132.110351562 558.025390625 176 503.946289062 176 c 0
 449.8671875 176 405.946289062 132.110351562 405.946289062 78 c 0
 405.946289062 36.306840795 432.032587336 0.66385547895 468.76163473 -13.485406795 c 1
 434.966713298 -59.549809316 387.34663772 -98.4108562786 366.799804688 -112.418945312 c 0
 328.106445312 -139.020507812 347.190429688 -200 393.946289062 -200 c 0
 404.018554688 -200 413.370117188 -196.891601562 421.092773438 -191.581054688 c 0
 434.55078125 -182.329101562 601.946289062 -64.3828125 601.946289062 78 c 0
EndSplineSet
EndChar

StartChar: period
Encoding: 46 46 50
Width: 1008
VWidth: 4000
Flags: HW
LayerCount: 2
Fore
SplineSet
406 78.015625 m 0
 406 23.9052734375 449.920898438 -19.984375 504 -19.984375 c 0
 558.079101562 -19.984375 602 23.9052734375 602 78.015625 c 0
 602 132.107421875 558.091796875 176.015625 504 176.015625 c 0
 449.908203125 176.015625 406 132.107421875 406 78.015625 c 0
EndSplineSet
EndChar

StartChar: four
Encoding: 52 52 51
Width: 1008
VWidth: 4000
Flags: HW
LayerCount: 2
Fore
SplineSet
534.255859375 96 m 6
 507.763671875 96 486.255859375 74.4921875 486.255859375 48 c 4
 486.255859375 21.5078125 507.763671875 0 534.255859375 0 c 6
 870.255859375 0 l 6
 896.748046875 0 918.255859375 21.5078125 918.255859375 48 c 4
 918.255859375 74.4921875 896.748046875 96 870.255859375 96 c 6
 534.255859375 96 l 6
670.255859375 368 m 5
 223.3515625 368 l 5
 670.255859375 880.0234375 l 5
 670.255859375 368 l 5
766.255859375 272 m 5
 890.255859375 272 l 6
 916.748046875 272 938.255859375 293.5078125 938.255859375 320 c 4
 938.255859375 346.4921875 916.748046875 368 890.255859375 368 c 6
 766.255859375 368 l 5
 766.255859375 1008 l 6
 766.255859375 1052.03613281 711.16015625 1072.85253906 682.083984375 1039.54003906 c 6
 81.583984375 351.540039062 l 6
 54.5927734375 320.615234375 76.7578125 272 117.755859375 272 c 6
 670.255859375 272 l 5
 670.255859375 48 l 6
 670.255859375 21.5078125 691.763671875 0 718.255859375 0 c 4
 744.748046875 0 766.255859375 21.5078125 766.255859375 48 c 6
 766.255859375 272 l 5
EndSplineSet
EndChar

StartChar: greater
Encoding: 62 62 52
Width: 1008
VWidth: 4000
Flags: HW
LayerCount: 2
Fore
SplineSet
144.560546875 831.405273438 m 6
 112.951171875 846.37890625 76.0556640625 823.241210938 76.0556640625 788 c 4
 76.0556640625 768.841796875 87.3037109375 752.290039062 103.55078125 744.594726562 c 6
 771.916015625 428 l 5
 103.55078125 111.405273438 l 6
 87.3037109375 103.709960938 76.0556640625 87.158203125 76.0556640625 68 c 4
 76.0556640625 32.7578125 112.951171875 9.6220703125 144.560546875 24.5947265625 c 6
 904.560546875 384.594726562 l 6
 941.071289062 401.888671875 941.071289062 454.111328125 904.560546875 471.405273438 c 6
 144.560546875 831.405273438 l 6
EndSplineSet
EndChar

StartChar: less
Encoding: 60 60 53
Width: 1008
VWidth: 4000
Flags: HW
LayerCount: 2
Fore
SplineSet
863.439453125 4.5947265625 m 6
 895.048828125 -10.37890625 931.944335938 12.7587890625 931.944335938 48 c 4
 931.944335938 67.158203125 920.696289062 83.7099609375 904.44921875 91.4052734375 c 6
 236.083984375 408 l 5
 904.44921875 724.594726562 l 6
 920.696289062 732.290039062 931.944335938 748.841796875 931.944335938 768 c 4
 931.944335938 803.2421875 895.048828125 826.377929688 863.439453125 811.405273438 c 6
 103.439453125 451.405273438 l 6
 66.9287109375 434.111328125 66.9287109375 381.888671875 103.439453125 364.594726562 c 6
 863.439453125 4.5947265625 l 6
EndSplineSet
EndChar

StartChar: D
Encoding: 68 68 54
Width: 1008
VWidth: 4000
Flags: HW
LayerCount: 2
Fore
SplineSet
439.6875 0 m 4
 759.880859375 0 922 210.677734375 922 528 c 4
 922 652.073242188 897.43359375 769.206054688 836.719726562 863.2421875 c 4
 775.948242188 957.368164062 659.756835938 1056 439.6875 1056 c 4
 413.1953125 1056 391.6875 1034.4921875 391.6875 1008 c 4
 391.6875 981.5078125 413.1953125 960 439.6875 960 c 4
 599.262695312 960 698.059570312 901.026367188 756.009765625 811.270507812 c 4
 803.159179688 738.244140625 826 639.565429688 826 528 c 4
 826 345.954101562 766.495117188 96 439.6875 96 c 4
 413.1953125 96 391.6875 74.4921875 391.6875 48 c 4
 391.6875 21.5078125 413.1953125 0 439.6875 0 c 4
282 988 m 6
 282 1014.4921875 260.4921875 1036 234 1036 c 4
 207.5078125 1036 186 1014.4921875 186 988 c 6
 186 68 l 6
 186 41.5078125 207.5078125 20 234 20 c 4
 260.4921875 20 282 41.5078125 282 68 c 6
 282 988 l 6
439.6875 0 m 6
 466.1796875 0 487.6875 21.5078125 487.6875 48 c 4
 487.6875 74.4921875 466.1796875 96 439.6875 96 c 6
 134 96 l 6
 107.5078125 96 86 74.4921875 86 48 c 4
 86 21.5078125 107.5078125 0 134 0 c 6
 439.6875 0 l 6
134 1056 m 6
 107.5078125 1056 86 1034.4921875 86 1008 c 4
 86 981.5078125 107.5078125 960 134 960 c 6
 439.6875 960 l 6
 466.1796875 960 487.6875 981.5078125 487.6875 1008 c 4
 487.6875 1034.4921875 466.1796875 1056 439.6875 1056 c 6
 134 1056 l 6
EndSplineSet
EndChar

StartChar: L
Encoding: 76 76 55
Width: 1008
VWidth: 4000
Flags: HW
LayerCount: 2
Fore
SplineSet
922 268 m 6
 922 294.4921875 900.4921875 316 874 316 c 4
 847.5078125 316 826 294.4921875 826 268 c 6
 826 96 l 5
 134 96 l 6
 107.5078125 96 86 74.4921875 86 48 c 4
 86 21.5078125 107.5078125 0 134 0 c 6
 874 0 l 6
 900.4921875 0 922 21.5078125 922 48 c 6
 922 268 l 6
134 1056 m 6
 107.5078125 1056 86 1034.4921875 86 1008 c 4
 86 981.5078125 107.5078125 960 134 960 c 6
 394 960 l 6
 420.4921875 960 442 981.5078125 442 1008 c 4
 442 1034.4921875 420.4921875 1056 394 1056 c 6
 134 1056 l 6
302 988 m 6
 302 1014.4921875 280.4921875 1036 254 1036 c 4
 227.5078125 1036 206 1014.4921875 206 988 c 6
 206 68 l 6
 206 41.5078125 227.5078125 20 254 20 c 4
 280.4921875 20 302 41.5078125 302 68 c 6
 302 988 l 6
EndSplineSet
EndChar

StartChar: T
Encoding: 84 84 56
Width: 1008
VWidth: 4000
Flags: HW
LayerCount: 2
Fore
SplineSet
96 748 m 6
 96 721.5078125 117.5078125 700 144 700 c 4
 170.4921875 700 192 721.5078125 192 748 c 6
 192 960 l 5
 816 960 l 5
 816 748 l 6
 816 721.5078125 837.5078125 700 864 700 c 4
 890.4921875 700 912 721.5078125 912 748 c 6
 912 1008 l 6
 912 1034.4921875 890.4921875 1056 864 1056 c 6
 144 1056 l 6
 117.5078125 1056 96 1034.4921875 96 1008 c 6
 96 748 l 6
456 68 m 4
 456 41.5078125 477.5078125 20 504 20 c 4
 530.4921875 20 552 41.5078125 552 68 c 4
 552 94.4921875 530.4921875 116 504 116 c 4
 477.5078125 116 456 94.4921875 456 68 c 4
456 68 m 6
 456 41.5078125 477.5078125 20 504 20 c 4
 530.4921875 20 552 41.5078125 552 68 c 6
 552 988 l 6
 552 1014.4921875 530.4921875 1036 504 1036 c 4
 477.5078125 1036 456 1014.4921875 456 988 c 6
 456 68 l 6
324 96 m 6
 297.5078125 96 276 74.4921875 276 48 c 4
 276 21.5078125 297.5078125 0 324 0 c 6
 684 0 l 6
 710.4921875 0 732 21.5078125 732 48 c 4
 732 74.4921875 710.4921875 96 684 96 c 6
 324 96 l 6
EndSplineSet
EndChar

StartChar: backslash
Encoding: 92 92 57
Width: 1008
VWidth: 4000
Flags: HW
LayerCount: 2
Fore
SplineSet
906.020507812 -248.794921875 m 2
 923.61328125 -280.559570312 900.53515625 -320 864 -320 c 0
 845.922851562 -320 830.166015625 -309.985351562 821.979492188 -295.205078125 c 2
 101.979492188 1004.79492188 l 2
 84.38671875 1036.55957031 107.46484375 1076 144 1076 c 0
 162.077148438 1076 177.833984375 1065.98535156 186.020507812 1051.20507812 c 2
 906.020507812 -248.794921875 l 2
EndSplineSet
EndChar

StartChar: d
Encoding: 100 100 58
Width: 1008
VWidth: 4000
Flags: HW
LayerCount: 2
Fore
SplineSet
192 378 m 4
 192 549.828125 314.215820312 680 454 680 c 4
 593.768554688 680 716 549.825195312 716 378 c 4
 716 206.189453125 593.766601562 76 454 76 c 4
 314.217773438 76 192 206.1875 192 378 c 4
96 378 m 4
 96 163.21875 251.344726562 -20 454 -20 c 4
 656.639648438 -20 812 163.216796875 812 378 c 4
 812 592.799804688 656.637695312 776 454 776 c 4
 251.346679688 776 96 592.796875 96 378 c 4
604 1056 m 6
 577.5078125 1056 556 1034.4921875 556 1008 c 4
 556 981.5078125 577.5078125 960 604 960 c 6
 716 960 l 5
 716 48 l 6
 716 21.5078125 737.5078125 0 764 0 c 6
 864 0 l 6
 890.4921875 0 912 21.5078125 912 48 c 4
 912 74.4921875 890.4921875 96 864 96 c 6
 812 96 l 5
 812 1008 l 6
 812 1034.4921875 790.4921875 1056 764 1056 c 6
 604 1056 l 6
EndSplineSet
EndChar

StartChar: t
Encoding: 116 116 59
Width: 1008
VWidth: 4000
Flags: HW
LayerCount: 2
Fore
SplineSet
376 248 m 6
 376 74.4287109375 484.455078125 -20 624 -20 c 4
 667.09765625 -20 750.461914062 -4.70703125 807.810546875 101.926757812 c 4
 823.145507812 130.439453125 830.16015625 152.567382812 830.16015625 154.8046875 c 4
 830.16015625 158.998046875 832 163.424804688 832 168 c 4
 832 194.4921875 810.4921875 216 784 216 c 4
 762.083984375 216 743.578125 201.279296875 737.83984375 181.1953125 c 6
 737.83984375 181.1953125 723.372070312 132.053710938 687.23046875 100.428710938 c 4
 670.338867188 85.6494140625 650.828125 76 624 76 c 4
 569.368164062 76 530.974609375 95.1435546875 506.055664062 127.750976562 c 4
 485.725585938 154.35546875 472 193.868164062 472 248 c 6
 472 1008 l 6
 472 1034.4921875 450.4921875 1056 424 1056 c 4
 397.5078125 1056 376 1034.4921875 376 1008 c 6
 376 248 l 6
224 756 m 6
 197.5078125 756 176 734.4921875 176 708 c 4
 176 681.5078125 197.5078125 660 224 660 c 6
 624 660 l 6
 650.4921875 660 672 681.5078125 672 708 c 4
 672 734.4921875 650.4921875 756 624 756 c 6
 224 756 l 6
EndSplineSet
EndChar

StartChar: bar
Encoding: 124 124 60
Width: 1008
VWidth: 4000
Flags: HW
LayerCount: 2
Fore
SplineSet
552 1008 m 6
 552 1034.4921875 530.4921875 1056 504 1056 c 4
 477.5078125 1056 456 1034.4921875 456 1008 c 6
 456 -232 l 6
 456 -258.4921875 477.5078125 -280 504 -280 c 4
 530.4921875 -280 552 -258.4921875 552 -232 c 6
 552 1008 l 6
EndSplineSet
EndChar

StartChar: percent
Encoding: 37 37 61
Width: 1008
VWidth: 4000
Flags: HW
LayerCount: 2
Fore
SplineSet
654.303710938 -173.47265625 m 4
 572.87109375 -151.653320312 530.192382812 -49.3798828125 557.17578125 51.3251953125 c 4
 584.166015625 152.051757812 672.260742188 219.26171875 753.690429688 197.443359375 c 4
 835.122070312 175.623046875 877.805664062 73.3671875 850.817382812 -27.35546875 c 4
 823.833007812 -128.064453125 735.733398438 -195.291992188 654.303710938 -173.47265625 c 4
778.537109375 290.171875 m 4
 647.155273438 325.375 506.130859375 231.736328125 464.447265625 76.171875 c 4
 422.770507812 -79.3681640625 498.067382812 -230.99609375 629.45703125 -266.201171875 c 4
 760.845703125 -301.407226562 901.869140625 -207.743164062 943.546875 -52.2021484375 c 4
 985.227539062 103.353515625 909.92578125 254.965820312 778.537109375 290.171875 c 4
254.30859375 578.537109375 m 4
 172.876953125 600.356445312 130.197265625 702.629882812 157.180664062 803.334960938 c 4
 184.166015625 904.043945312 272.265625 971.271484375 353.6953125 949.453125 c 4
 435.126953125 927.6328125 477.806640625 825.360351562 450.822265625 724.654296875 c 4
 423.837890625 623.9453125 335.73828125 556.717773438 254.30859375 578.537109375 c 4
378.541992188 1042.18164062 m 4
 247.15234375 1077.38671875 106.12890625 983.723632812 64.4521484375 828.181640625 c 4
 22.775390625 672.641601562 98.072265625 521.013671875 229.461914062 485.80859375 c 4
 360.850585938 450.602539062 501.874023438 544.266601562 543.551757812 699.807617188 c 4
 585.228515625 855.348632812 509.930664062 1006.97558594 378.541992188 1042.18164062 c 4
121.301757812 -250.06640625 m 6
 104.965820312 -281.77734375 128.081054688 -320 164.000976562 -320 c 4
 182.592773438 -320 198.729492188 -309.407226562 206.700195312 -293.93359375 c 6
 886.700195312 1026.06640625 l 6
 903.036132812 1057.77734375 879.920898438 1096 844.000976562 1096 c 4
 825.409179688 1096 809.272460938 1085.40722656 801.301757812 1069.93359375 c 6
 121.301757812 -250.06640625 l 6
486.581054688 1033.65820312 m 4
 407.51171875 1033.65820312 377.387695312 1043.828125 366.110351562 1043.828125 c 4
 339.618164062 1043.828125 318.110351562 1022.3203125 318.110351562 995.828125 c 4
 318.110351562 972.671875 334.543945312 953.322265625 356.375 948.817382812 c 4
 491.978515625 920.8359375 739.805664062 947.708007812 863.880859375 1004.30371094 c 4
 880.463867188 1011.86816406 892.000976562 1028.59765625 892.000976562 1048 c 4
 892.000976562 1082.94921875 855.672851562 1106.08789062 824.12109375 1091.69628906 c 4
 750.852539062 1058.27539062 608.802734375 1033.65820312 486.581054688 1033.65820312 c 4
EndSplineSet
EndChar

StartChar: hyphen
Encoding: 45 45 62
Width: 1008
VWidth: 4000
Flags: HW
LayerCount: 2
Fore
SplineSet
804 400 m 6
 830.4921875 400 852 421.5078125 852 448 c 4
 852 474.4921875 830.4921875 496 804 496 c 6
 204 496 l 6
 177.5078125 496 156 474.4921875 156 448 c 4
 156 421.5078125 177.5078125 400 204 400 c 6
 804 400 l 6
EndSplineSet
EndChar

StartChar: five
Encoding: 53 53 63
Width: 1008
VWidth: 4000
Flags: HW
LayerCount: 2
Fore
SplineSet
503.99609375 76 m 4
 365.275390625 76 231.99609375 156.125976562 231.99609375 268 c 4
 231.99609375 294.4921875 210.48828125 316 183.99609375 316 c 4
 157.50390625 316 135.99609375 294.4921875 135.99609375 268 c 4
 135.99609375 101.092773438 309.513671875 -20 503.99609375 -20 c 4
 708.68359375 -20 872.00390625 168.564453125 872.00390625 385.563476562 c 4
 872.00390625 590.750976562 709.337890625 748 503.99609375 748 c 4
 417.37109375 748 260.732421875 731.868164062 174.8046875 588.642578125 c 4
 155.740234375 556.865234375 178.749023438 516 215.99609375 516 c 4
 233.481445312 516 248.794921875 525.369140625 257.1875 539.357421875 c 4
 282.223632812 581.088867188 339.626953125 652 503.99609375 652 c 4
 658.782226562 652 775.029296875 537.234375 775.997070312 387.68359375 c 4
 776.006835938 223.38671875 656.493164062 76 503.99609375 76 c 4
231.99609375 268 m 5
 213.99609375 250 l 5
 195.99609375 268 l 5
 213.99609375 286 l 5
 231.99609375 268 l 5
135.99609375 268 m 4
 135.99609375 224.951171875 170.947265625 190 213.99609375 190 c 4
 257.044921875 190 291.99609375 224.951171875 291.99609375 268 c 4
 291.99609375 311.068359375 257.022460938 346 213.99609375 346 c 4
 170.969726562 346 135.99609375 311.068359375 135.99609375 268 c 4
183.99609375 268.006835938 m 4
 183.99609375 284.575195312 197.427734375 298.006835938 213.99609375 298.006835938 c 4
 230.564453125 298.006835938 243.99609375 284.575195312 243.99609375 268.006835938 c 4
 243.99609375 251.438476562 230.564453125 238.006835938 213.99609375 238.006835938 c 4
 197.427734375 238.006835938 183.99609375 251.438476562 183.99609375 268.006835938 c 4
215.99609375 516 m 4
 242.194335938 516 263.518554688 537.033203125 263.98828125 563.120117188 c 6
 271.139648438 960 l 5
 791.99609375 960 l 6
 818.48828125 960 839.99609375 981.5078125 839.99609375 1008 c 4
 839.99609375 1034.4921875 818.48828125 1056 791.99609375 1056 c 6
 223.99609375 1056 l 6
 197.797851562 1056 176.473632812 1034.96679688 176.00390625 1008.87988281 c 6
 168.00390625 564.879882812 l 6
 168.00390625 537.5078125 189.50390625 516 215.99609375 516 c 4
EndSplineSet
EndChar

StartChar: equal
Encoding: 61 61 64
Width: 1008
VWidth: 4000
Flags: HW
LayerCount: 2
Fore
SplineSet
184 556 m 6
 157.5078125 556 136 534.4921875 136 508 c 4
 136 481.5078125 157.5078125 460 184 460 c 6
 824 460 l 6
 850.4921875 460 872 481.5078125 872 508 c 4
 872 534.4921875 850.4921875 556 824 556 c 6
 184 556 l 6
184 336 m 6
 157.5078125 336 136 314.4921875 136 288 c 4
 136 261.5078125 157.5078125 240 184 240 c 6
 824 240 l 6
 850.4921875 240 872 261.5078125 872 288 c 4
 872 314.4921875 850.4921875 336 824 336 c 6
 184 336 l 6
EndSplineSet
EndChar

StartChar: E
Encoding: 69 69 65
Width: 1008
VWidth: 4000
Flags: HW
LayerCount: 2
Fore
SplineSet
176 68 m 6
 176 41.5078125 197.5078125 20 224 20 c 4
 250.4921875 20 272 41.5078125 272 68 c 6
 272 988 l 6
 272 1014.4921875 250.4921875 1036 224 1036 c 4
 197.5078125 1036 176 1014.4921875 176 988 c 6
 176 68 l 6
144 96 m 6
 117.5078125 96 96 74.4921875 96 48 c 4
 96 21.5078125 117.5078125 0 144 0 c 6
 864 0 l 6
 890.4921875 0 912 21.5078125 912 48 c 6
 912 288 l 6
 912 314.4921875 890.4921875 336 864 336 c 4
 837.5078125 336 816 314.4921875 816 288 c 6
 816 96 l 5
 144 96 l 6
796 960 m 5
 796 776 l 6
 796 749.5078125 817.5078125 728 844 728 c 4
 870.4921875 728 892 749.5078125 892 776 c 6
 892 1008 l 6
 892 1034.4921875 870.4921875 1056 844 1056 c 6
 144 1056 l 6
 117.5078125 1056 96 1034.4921875 96 1008 c 4
 96 981.5078125 117.5078125 960 144 960 c 6
 796 960 l 5
244 596 m 6
 217.5078125 596 196 574.4921875 196 548 c 4
 196 521.5078125 217.5078125 500 244 500 c 6
 564 500 l 6
 590.4921875 500 612 521.5078125 612 548 c 4
 612 574.4921875 590.4921875 596 564 596 c 6
 244 596 l 6
612 668 m 6
 612 694.4921875 590.4921875 716 564 716 c 4
 537.5078125 716 516 694.4921875 516 668 c 6
 516 408 l 6
 516 381.5078125 537.5078125 360 564 360 c 4
 590.4921875 360 612 381.5078125 612 408 c 6
 612 668 l 6
EndSplineSet
EndChar

StartChar: M
Encoding: 77 77 66
Width: 1008
VWidth: 4000
Flags: HW
LayerCount: 2
Fore
SplineSet
776 68 m 6
 776 41.5078125 797.5078125 20 824 20 c 4
 850.4921875 20 872 41.5078125 872 68 c 6
 872 988 l 6
 872 1014.4921875 850.4921875 1036 824 1036 c 4
 797.5078125 1036 776 1014.4921875 776 988 c 6
 776 68 l 6
136 68 m 6
 136 41.5078125 157.5078125 20 184 20 c 4
 210.4921875 20 232 41.5078125 232 68 c 6
 232 988 l 6
 232 1014.4921875 210.4921875 1036 184 1036 c 4
 157.5078125 1036 136 1014.4921875 136 988 c 6
 136 68 l 6
104 96 m 6
 77.5078125 96 56 74.4921875 56 48 c 4
 56 21.5078125 77.5078125 0 104 0 c 6
 264 0 l 6
 290.4921875 0 312 21.5078125 312 48 c 4
 312 74.4921875 290.4921875 96 264 96 c 6
 104 96 l 6
744 96 m 6
 717.5078125 96 696 74.4921875 696 48 c 4
 696 21.5078125 717.5078125 0 744 0 c 6
 904 0 l 6
 930.4921875 0 952 21.5078125 952 48 c 4
 952 74.4921875 930.4921875 96 904 96 c 6
 744 96 l 6
104 1056 m 6
 77.5078125 1056 56 1034.4921875 56 1008 c 4
 56 981.5078125 77.5078125 960 104 960 c 6
 245.747070312 960 l 5
 457.2109375 37.25 l 6
 462.09765625 15.9267578125 481.203125 0 504 0 c 4
 526.796875 0 545.90234375 15.9267578125 550.7890625 37.25 c 6
 762.252929688 960 l 5
 904 960 l 6
 930.4921875 960 952 981.5078125 952 1008 c 4
 952 1034.4921875 930.4921875 1056 904 1056 c 6
 724 1056 l 6
 701.203125 1056 682.09765625 1040.07324219 677.2109375 1018.75 c 6
 504 262.921875 l 5
 330.7890625 1018.75 l 6
 325.90234375 1040.07324219 306.796875 1056 284 1056 c 6
 104 1056 l 6
EndSplineSet
EndChar

StartChar: U
Encoding: 85 85 67
Width: 1008
VWidth: 4000
Flags: HW
LayerCount: 2
Fore
SplineSet
504.3125 -19.8125 m 4
 690.379882812 -19.8125 842 130.901367188 842 318 c 4
 842 344.4921875 820.4921875 366 794 366 c 4
 767.5078125 366 746 344.4921875 746 318 c 4
 746 183.65234375 637.198242188 76.1875 504.3125 76.1875 c 4
 370.307617188 76.1875 262 183.942382812 262 318 c 4
 262 344.4921875 240.4921875 366 214 366 c 4
 187.5078125 366 166 344.4921875 166 318 c 4
 166 131.548828125 316.736328125 -19.8125 504.3125 -19.8125 c 4
746 318 m 6
 746 291.5078125 767.5078125 270 794 270 c 4
 820.4921875 270 842 291.5078125 842 318 c 6
 842 1008 l 6
 842 1034.4921875 820.4921875 1056 794 1056 c 4
 767.5078125 1056 746 1034.4921875 746 1008 c 6
 746 318 l 6
166 318 m 6
 166 291.5078125 187.5078125 270 214 270 c 4
 240.4921875 270 262 291.5078125 262 318 c 6
 262 1008 l 6
 262 1034.4921875 240.4921875 1056 214 1056 c 4
 187.5078125 1056 166 1034.4921875 166 1008 c 6
 166 318 l 6
104 1056 m 6
 77.5078125 1056 56 1034.4921875 56 1008 c 4
 56 981.5078125 77.5078125 960 104 960 c 6
 324 960 l 6
 350.4921875 960 372 981.5078125 372 1008 c 4
 372 1034.4921875 350.4921875 1056 324 1056 c 6
 104 1056 l 6
684 1056 m 6
 657.5078125 1056 636 1034.4921875 636 1008 c 4
 636 981.5078125 657.5078125 960 684 960 c 6
 904 960 l 6
 930.4921875 960 952 981.5078125 952 1008 c 4
 952 1034.4921875 930.4921875 1056 904 1056 c 6
 684 1056 l 6
EndSplineSet
EndChar

StartChar: bracketright
Encoding: 93 93 68
Width: 1008
VWidth: 4000
Flags: HW
LayerCount: 2
Fore
SplineSet
404 1056 m 6
 377.5078125 1056 356 1034.4921875 356 1008 c 4
 356 981.5078125 377.5078125 960 404 960 c 6
 556 960 l 5
 556 -144 l 5
 404 -144 l 6
 377.5078125 -144 356 -165.5078125 356 -192 c 4
 356 -218.4921875 377.5078125 -240 404 -240 c 6
 604 -240 l 6
 630.4921875 -240 652 -218.4921875 652 -192 c 6
 652 1008 l 6
 652 1034.4921875 630.4921875 1056 604 1056 c 6
 404 1056 l 6
EndSplineSet
EndChar

StartChar: e
Encoding: 101 101 69
Width: 1008
VWidth: 4000
Flags: HW
LayerCount: 2
Fore
SplineSet
498.006835938 680 m 4
 641.643554688 680 735.350585938 574.329101562 755.791015625 458 c 5
 253.641601562 458 l 5
 279.586914062 599.822265625 390.853515625 680 498.006835938 680 c 4
756.264648438 226.067382812 m 4
 754.849609375 223.59375 663.32421875 76 514.006835938 76 c 4
 367.82421875 76 260.357421875 199.120117188 248.995117188 362 c 5
 808.006835938 362 l 6
 834.499023438 362 856.006835938 383.5078125 856.006835938 410 c 4
 856.006835938 586.744140625 722.822265625 776 498.006835938 776 c 4
 320.078125 776 152.0078125 625.200195312 152.0078125 394.845703125 c 4
 150.2421875 155.780273438 311.06640625 -20 514.006835938 -20 c 4
 608.0390625 -20 683.065429688 20.404296875 735.986328125 62.8505859375 c 4
 802.32421875 116.056640625 836.938476562 173.9375 838.624023438 176.745117188 c 4
 857.708007812 208.522460938 834.700195312 249.40625 797.444335938 249.40625 c 4
 779.966796875 249.40625 764.658203125 240.044921875 756.264648438 226.067382812 c 4
EndSplineSet
EndChar

StartChar: m
Encoding: 109 109 70
Width: 1008
VWidth: 4000
Flags: HW
LayerCount: 2
Fore
SplineSet
440.0078125 96 m 6
 413.515625 96 392.0078125 74.4921875 392.0078125 48 c 4
 392.0078125 21.5078125 413.515625 0 440.0078125 0 c 6
 568.0078125 0 l 6
 594.5 0 616.0078125 21.5078125 616.0078125 48 c 4
 616.0078125 74.4921875 594.5 96 568.0078125 96 c 6
 440.0078125 96 l 6
552.0078125 592.5625 m 6
 552.0078125 701.41796875 488.776367188 776 393.9921875 776 c 4
 289.696289062 776 220.809570312 698.5703125 155.735351562 601.625976562 c 4
 134.458007812 569.928710938 157.31640625 526.921875 195.6171875 526.921875 c 4
 212.228515625 526.921875 226.880859375 535.37890625 235.499023438 548.217773438 c 4
 299.768554688 643.9609375 344.850585938 680 393.9921875 680 c 4
 409.6953125 680 434.051757812 677.049804688 447.755859375 641.688476562 c 4
 452.970703125 628.232421875 456.0078125 610.970703125 456.0078125 592.5625 c 6
 456.0078125 48 l 6
 456.0078125 21.5078125 477.515625 0 504.0078125 0 c 4
 530.5 0 552.0078125 21.5078125 552.0078125 48 c 6
 552.0078125 592.5625 l 6
147.6171875 48 m 4
 147.6171875 21.5078125 169.125 0 195.6171875 0 c 4
 222.109375 0 243.6171875 21.5078125 243.6171875 48 c 4
 243.6171875 74.4921875 222.109375 96 195.6171875 96 c 4
 169.125 96 147.6171875 74.4921875 147.6171875 48 c 4
147.6171875 48 m 6
 147.6171875 21.5078125 169.125 0 195.6171875 0 c 4
 222.109375 0 243.6171875 21.5078125 243.6171875 48 c 6
 243.6171875 708 l 6
 243.6171875 734.4921875 222.109375 756 195.6171875 756 c 6
 132.0078125 756 l 6
 105.515625 756 84.0078125 734.4921875 84.0078125 708 c 4
 84.0078125 681.5078125 105.515625 660 132.0078125 660 c 6
 147.6171875 660 l 5
 147.6171875 48 l 6
860.3828125 592.5625 m 6
 860.3828125 701.41796875 797.151367188 776 702.3671875 776 c 4
 598.0859375 776 529.186523438 698.572265625 464.123046875 601.62109375 c 4
 442.850585938 569.923828125 465.708984375 526.921875 504.0078125 526.921875 c 4
 520.62109375 526.921875 535.274414062 535.380859375 543.892578125 548.22265625 c 4
 608.141601562 643.958984375 653.2421875 680 702.3671875 680 c 4
 718.0703125 680 742.426757812 677.049804688 756.130859375 641.688476562 c 4
 761.345703125 628.232421875 764.3828125 610.970703125 764.3828125 592.5625 c 6
 764.3828125 48 l 6
 764.3828125 21.5078125 785.890625 0 812.3828125 0 c 4
 838.875 0 860.3828125 21.5078125 860.3828125 48 c 6
 860.3828125 592.5625 l 6
748.3828125 96 m 6
 721.890625 96 700.3828125 74.4921875 700.3828125 48 c 4
 700.3828125 21.5078125 721.890625 0 748.3828125 0 c 6
 876.3828125 0 l 6
 902.875 0 924.3828125 21.5078125 924.3828125 48 c 4
 924.3828125 74.4921875 902.875 96 876.3828125 96 c 6
 748.3828125 96 l 6
131.6171875 96 m 6
 105.125 96 83.6171875 74.4921875 83.6171875 48 c 4
 83.6171875 21.5078125 105.125 0 131.6171875 0 c 6
 259.6171875 0 l 6
 286.109375 0 307.6171875 21.5078125 307.6171875 48 c 4
 307.6171875 74.4921875 286.109375 96 259.6171875 96 c 6
 131.6171875 96 l 6
EndSplineSet
EndChar

StartChar: u
Encoding: 117 117 71
Width: 1008
VWidth: 4000
Flags: HW
LayerCount: 2
Fore
SplineSet
212 268 m 6
 212 113.525390625 312.317382812 -20 456.53125 -20 c 4
 597.44921875 -20 672.875 90.396484375 770.30859375 233.005859375 c 4
 784.365234375 253.580078125 788 258.899414062 788 273.71875 c 4
 788 320.529296875 726.899414062 339.57421875 700.35546875 300.774414062 c 4
 598.133789062 151.352539062 546.583984375 76 456.53125 76 c 4
 362.482421875 76 308 174.103515625 308 268 c 6
 308 708 l 6
 308 734.4921875 286.4921875 756 260 756 c 6
 152 756 l 6
 125.5078125 756 104 734.4921875 104 708 c 4
 104 681.5078125 125.5078125 660 152 660 c 6
 212 660 l 5
 212 268 l 6
856 0 m 6
 882.4921875 0 904 21.5078125 904 48 c 4
 904 74.4921875 882.4921875 96 856 96 c 6
 788 96 l 5
 788 708 l 6
 788 734.4921875 766.4921875 756 740 756 c 6
 632 756 l 6
 605.5078125 756 584 734.4921875 584 708 c 4
 584 681.5078125 605.5078125 660 632 660 c 6
 692 660 l 5
 692 48 l 6
 692 21.5078125 713.5078125 0 740 0 c 6
 856 0 l 6
EndSplineSet
EndChar

StartChar: asciitilde
Encoding: 126 126 72
Width: 1008
VWidth: 4000
Flags: HW
LayerCount: 2
Fore
SplineSet
344 416 m 4
 200.264648438 416 136 292.252929688 136 208 c 4
 136 181.5078125 157.5078125 160 184 160 c 4
 210.4921875 160 232 181.5078125 232 208 c 4
 232 224.841796875 246.368164062 320 344 320 c 4
 439.341796875 320 523.510742188 160 664 160 c 4
 807.796875 160 872 286.517578125 872 368 c 4
 872 394.4921875 850.4921875 416 824 416 c 4
 797.5078125 416 776 394.4921875 776 368 c 4
 776 366.974609375 773.579101562 310.032226562 729.696289062 276.4765625 c 4
 714.080078125 264.53515625 693.877929688 256 664 256 c 4
 568.658203125 256 484.489257812 416 344 416 c 4
EndSplineSet
EndChar

StartChar: ampersand
Encoding: 38 38 73
Width: 1008
VWidth: 4000
Flags: HW
LayerCount: 2
Fore
SplineSet
519.826171875 218.766601562 m 5
 469.069335938 96.4404296875 404.169921875 76 330.48046875 76 c 4
 273.392578125 76 164.48046875 110.756835938 164.48046875 236 c 4
 164.48046875 344.538085938 199.997070312 383.084960938 321.288085938 500.145507812 c 4
 323.979492188 502.743164062 326.70703125 508.044921875 329.471679688 508.044921875 c 4
 341.331054688 489.276367188 451.112304688 317.750976562 519.826171875 218.766601562 c 5
348.768554688 661.314453125 m 5
 314.83984375 720.356445312 270.48046875 804.569335938 270.48046875 865 c 4
 270.48046875 950.796875 333.033203125 980 382.48046875 980 c 4
 428.802734375 980 490.48046875 955.659179688 490.48046875 878 c 4
 490.48046875 817.35546875 456.1953125 768.67578125 348.768554688 661.314453125 c 5
583.823242188 130.803710938 m 5
 664.668945312 26.35546875 724.168945312 -20 790.48046875 -20 c 4
 842.3515625 -20 896.669921875 2.6103515625 934.375976562 77.4501953125 c 4
 950.340820312 109.137695312 927.216796875 147 891.48046875 147 c 4
 872.736328125 147 856.486328125 136.232421875 848.584960938 120.549804688 c 4
 827.487304688 78.6728515625 807.333007812 76 790.48046875 76 c 4
 746.389648438 76 677.721679688 163.791015625 627.934570312 232.5625 c 4
 647.154296875 281.169921875 684.088867188 360.356445312 731.75390625 394.791992188 c 4
 783.069335938 431.865234375 802.48046875 382.200195312 802.48046875 367 c 4
 802.48046875 340.5078125 823.98828125 319 850.48046875 319 c 4
 876.97265625 319 898.48046875 340.5078125 898.48046875 367 c 4
 898.48046875 432.172851562 846.474609375 504.21875 764.69921875 504.21875 c 4
 667.188476562 504.21875 598.748046875 397.265625 563.635742188 325.014648438 c 5
 561.956054688 327.50390625 465.1875 472.122070312 399.8203125 576.681640625 c 5
 514.395507812 689.7421875 586.48046875 769.463867188 586.48046875 878 c 4
 586.48046875 994.766601562 498.099609375 1076 382.48046875 1076 c 4
 267.87109375 1076 174.48046875 992.413085938 174.48046875 865 c 4
 174.48046875 795.750976562 203.618164062 718.03515625 278.060546875 591.853515625 c 4
 270.013671875 584.051757812 262.2109375 576.520507812 254.643554688 569.217773438 c 4
 189.637695312 506.478515625 140.193359375 460.165039062 107.33203125 401.34375 c 4
 80.892578125 354.016601562 68.48046875 301.024414062 68.48046875 236 c 4
 68.48046875 65.8642578125 207.856445312 -20 330.48046875 -20 c 4
 415.465820312 -20 512.600585938 3.0078125 583.823242188 130.803710938 c 5
EndSplineSet
EndChar

StartChar: six
Encoding: 54 54 74
Width: 1008
VWidth: 4000
Flags: HW
LayerCount: 2
Fore
SplineSet
247.171875 317.203125 m 4
 247.171875 444.935546875 366.186523438 557.328125 524.125 557.328125 c 4
 682.063476562 557.328125 801.078125 444.935546875 801.078125 317.203125 c 4
 801.078125 189.470703125 682.063476562 77.078125 524.125 77.078125 c 4
 366.186523438 77.078125 247.171875 189.470703125 247.171875 317.203125 c 4
151.171875 317.203125 m 4
 151.171875 126.685546875 323.125976562 -18.921875 524.125 -18.921875 c 4
 725.124023438 -18.921875 897.078125 126.685546875 897.078125 317.203125 c 4
 897.078125 507.720703125 725.124023438 653.328125 524.125 653.328125 c 4
 323.125976562 653.328125 151.171875 507.720703125 151.171875 317.203125 c 4
562.109375 980 m 4
 713.10546875 980 787.030273438 855.731445312 788.221679688 853.4296875 c 4
 796.493164062 838.961914062 812.077148438 829.203125 829.921875 829.203125 c 4
 866.736328125 829.203125 889.790039062 869.201171875 871.622070312 900.9765625 c 4
 869.469726562 904.7421875 827.10546875 979.3203125 735.75 1030.76074219 c 4
 690.008789062 1056.515625 631.779296875 1076 562.109375 1076 c 4
 353.39453125 1076 110.921875 903.583007812 110.921875 524.3125 c 4
 110.921875 445.840820312 112.977539062 333.466796875 179.508789062 188.559570312 c 4
 187.096679688 172.034179688 203.794921875 160.546875 223.15625 160.546875 c 4
 258.155273438 160.546875 281.294921875 196.971679688 266.803710938 228.534179688 c 4
 207.647460938 357.376953125 206.921875 448.221679688 206.921875 524.3125 c 4
 206.921875 851.588867188 407.521484375 980 562.109375 980 c 4
EndSplineSet
EndChar

StartChar: nine
Encoding: 57 57 75
Width: 1008
VWidth: 4000
Flags: HW
LayerCount: 2
Fore
SplineSet
760.828125 739.875 m 0
 760.828125 612.142578125 641.813476562 499.75 483.875 499.75 c 0
 325.936523438 499.75 206.921875 612.142578125 206.921875 739.875 c 0
 206.921875 867.607421875 325.936523438 980 483.875 980 c 0
 641.813476562 980 760.828125 867.607421875 760.828125 739.875 c 0
856.828125 739.875 m 0
 856.828125 930.392578125 684.874023438 1076 483.875 1076 c 0
 282.875976562 1076 110.921875 930.392578125 110.921875 739.875 c 0
 110.921875 549.357421875 282.875976562 403.75 483.875 403.75 c 0
 684.874023438 403.75 856.828125 549.357421875 856.828125 739.875 c 0
445.890625 77.078125 m 0
 294.89453125 77.078125 220.969726562 201.346679688 219.778320312 203.6484375 c 0
 211.506835938 218.116210938 195.922851562 227.875 178.078125 227.875 c 0
 141.263671875 227.875 118.209960938 187.876953125 136.377929688 156.1015625 c 0
 138.530273438 152.3359375 180.89453125 77.7578125 272.25 26.3173828125 c 0
 317.991210938 0.5625 376.220703125 -18.921875 445.890625 -18.921875 c 0
 654.60546875 -18.921875 897.078125 153.495117188 897.078125 532.765625 c 0
 897.078125 611.237304688 895.022460938 723.611328125 828.491210938 868.518554688 c 0
 820.903320312 885.043945312 804.205078125 896.53125 784.84375 896.53125 c 0
 749.844726562 896.53125 726.705078125 860.106445312 741.196289062 828.543945312 c 0
 800.352539062 699.701171875 801.078125 608.856445312 801.078125 532.765625 c 0
 801.078125 205.489257812 600.478515625 77.078125 445.890625 77.078125 c 0
EndSplineSet
EndChar

StartChar: F
Encoding: 70 70 76
Width: 1008
VWidth: 4000
Flags: HW
LayerCount: 2
Fore
SplineSet
810 960 m 5
 810 788 l 6
 810 761.5078125 831.5078125 740 858 740 c 4
 884.4921875 740 906 761.5078125 906 788 c 6
 906 1008 l 6
 906 1034.4921875 884.4921875 1056 858 1056 c 6
 150 1056 l 6
 123.5078125 1056 102 1034.4921875 102 1008 c 4
 102 981.5078125 123.5078125 960 150 960 c 6
 810 960 l 5
298 1008 m 6
 298 1034.4921875 276.4921875 1056 250 1056 c 4
 223.5078125 1056 202 1034.4921875 202 1008 c 6
 202 48 l 6
 202 21.5078125 223.5078125 0 250 0 c 4
 276.4921875 0 298 21.5078125 298 48 c 6
 298 1008 l 6
150 96 m 6
 123.5078125 96 102 74.4921875 102 48 c 4
 102 21.5078125 123.5078125 0 150 0 c 6
 350 0 l 6
 376.4921875 0 398 21.5078125 398 48 c 4
 398 74.4921875 376.4921875 96 350 96 c 6
 150 96 l 6
270 596 m 6
 243.5078125 596 222 574.4921875 222 548 c 4
 222 521.5078125 243.5078125 500 270 500 c 6
 570 500 l 6
 596.4921875 500 618 521.5078125 618 548 c 4
 618 574.4921875 596.4921875 596 570 596 c 6
 270 596 l 6
630 668 m 6
 630 694.4921875 608.4921875 716 582 716 c 4
 555.5078125 716 534 694.4921875 534 668 c 6
 534 408 l 6
 534 381.5078125 555.5078125 360 582 360 c 4
 608.4921875 360 630 381.5078125 630 408 c 6
 630 668 l 6
EndSplineSet
EndChar

StartChar: N
Encoding: 78 78 77
Width: 1008
VWidth: 4000
Flags: HW
LayerCount: 2
Fore
SplineSet
832 1008 m 6
 832 1034.4921875 810.4921875 1056 784 1056 c 4
 757.5078125 1056 736 1034.4921875 736 1008 c 6
 736 225.548828125 l 5
 265.4921875 1032.13476562 l 6
 257.168945312 1046.40332031 241.696289062 1056 224 1056 c 6
 124 1056 l 6
 97.5078125 1056 76 1034.4921875 76 1008 c 4
 76 981.5078125 97.5078125 960 124 960 c 6
 196.4296875 960 l 5
 742.5078125 23.865234375 l 6
 750.831054688 9.5966796875 766.303710938 0 784 0 c 4
 810.4921875 0 832 21.5078125 832 48 c 6
 832 1008 l 6
124 96 m 6
 97.5078125 96 76 74.4921875 76 48 c 4
 76 21.5078125 97.5078125 0 124 0 c 6
 324 0 l 6
 350.4921875 0 372 21.5078125 372 48 c 4
 372 74.4921875 350.4921875 96 324 96 c 6
 124 96 l 6
684 1056 m 6
 657.5078125 1056 636 1034.4921875 636 1008 c 4
 636 981.5078125 657.5078125 960 684 960 c 6
 884 960 l 6
 910.4921875 960 932 981.5078125 932 1008 c 4
 932 1034.4921875 910.4921875 1056 884 1056 c 6
 684 1056 l 6
176 68 m 6
 176 41.5078125 197.5078125 20 224 20 c 4
 250.4921875 20 272 41.5078125 272 68 c 6
 272 1008 l 6
 272 1034.4921875 250.4921875 1056 224 1056 c 4
 197.5078125 1056 176 1034.4921875 176 1008 c 6
 176 68 l 6
EndSplineSet
EndChar

StartChar: V
Encoding: 86 86 78
Width: 1008
VWidth: 4000
Flags: HW
LayerCount: 2
Fore
SplineSet
124 1056 m 6
 97.5078125 1056 76 1034.4921875 76 1008 c 4
 76 981.5078125 97.5078125 960 124 960 c 6
 344 960 l 6
 370.4921875 960 392 981.5078125 392 1008 c 4
 392 1034.4921875 370.4921875 1056 344 1056 c 6
 124 1056 l 6
664 1056 m 6
 637.5078125 1056 616 1034.4921875 616 1008 c 4
 616 981.5078125 637.5078125 960 664 960 c 6
 884 960 l 6
 910.4921875 960 932 981.5078125 932 1008 c 4
 932 1034.4921875 910.4921875 1056 884 1056 c 6
 664 1056 l 6
204 1056 m 4
 171.97265625 1056 148.993164062 1025.13183594 157.912109375 994.553710938 c 6
 437.912109375 34.5537109375 l 6
 443.732421875 14.59765625 462.174804688 0 484 0 c 6
 524 0 l 6
 546.146484375 0 564.809570312 15.0302734375 570.336914062 35.4384765625 c 6
 830.336914062 995.438476562 l 6
 838.569335938 1025.8359375 815.633789062 1056 784 1056 c 4
 761.853515625 1056 743.190429688 1040.96972656 737.663085938 1020.56152344 c 6
 503.029296875 154.219726562 l 5
 250.087890625 1021.44628906 l 6
 244.267578125 1041.40234375 225.825195312 1056 204 1056 c 4
EndSplineSet
EndChar

StartChar: asciicircum
Encoding: 94 94 79
Width: 1008
VWidth: 4000
Flags: HW
LayerCount: 2
Fore
SplineSet
262.009765625 671.259765625 m 6
 244.362304688 639.494140625 267.4375 600 304 600 c 4
 322.055664062 600 337.795898438 609.990234375 345.990234375 624.740234375 c 6
 504 909.158203125 l 5
 662.009765625 624.740234375 l 6
 670.204101562 609.990234375 685.944335938 600 704 600 c 4
 740.561523438 600 763.637695312 639.494140625 745.990234375 671.259765625 c 6
 545.990234375 1031.25976562 l 6
 527.717773438 1064.1484375 480.282226562 1064.1484375 462.009765625 1031.25976562 c 6
 262.009765625 671.259765625 l 6
EndSplineSet
EndChar

StartChar: f
Encoding: 102 102 80
Width: 1008
VWidth: 4000
Flags: HW
LayerCount: 2
Fore
SplineSet
209 96 m 6
 182.5078125 96 161 74.4921875 161 48 c 4
 161 21.5078125 182.5078125 0 209 0 c 6
 569 0 l 6
 595.4921875 0 617 21.5078125 617 48 c 4
 617 74.4921875 595.4921875 96 569 96 c 6
 209 96 l 6
589 1076 m 4
 446.458007812 1076 341 958.577148438 341 808 c 6
 341 68 l 6
 341 41.5078125 362.5078125 20 389 20 c 4
 415.4921875 20 437 41.5078125 437 68 c 6
 437 808 l 6
 437 895.831054688 490.783203125 980 589 980 c 4
 639.057617188 980 713.584960938 969.936523438 739.978515625 913.805664062 c 4
 746.678710938 899.55859375 751 881.384765625 751 857.765625 c 4
 751 831.2734375 772.5078125 809.765625 799 809.765625 c 4
 825.4921875 809.765625 847 831.2734375 847 857.765625 c 4
 847 985.465820312 759.825195312 1076 589 1076 c 4
787 858 m 5
 769 840 l 5
 751 858 l 5
 769 876 l 5
 787 858 l 5
691 858 m 4
 691 814.973632812 725.931640625 780 769 780 c 4
 812.048828125 780 847 814.951171875 847 858 c 4
 847 901.068359375 812.026367188 936 769 936 c 4
 725.953125 936 691 901.046875 691 858 c 4
738.9921875 858.0078125 m 4
 738.9921875 874.576171875 752.423828125 888.0078125 768.9921875 888.0078125 c 4
 785.560546875 888.0078125 798.9921875 874.576171875 798.9921875 858.0078125 c 4
 798.9921875 841.439453125 785.560546875 828.0078125 768.9921875 828.0078125 c 4
 752.423828125 828.0078125 738.9921875 841.439453125 738.9921875 858.0078125 c 4
249 756 m 6
 222.5078125 756 201 734.4921875 201 708 c 4
 201 681.5078125 222.5078125 660 249 660 c 6
 509 660 l 6
 535.4921875 660 557 681.5078125 557 708 c 4
 557 734.4921875 535.4921875 756 509 756 c 6
 249 756 l 6
EndSplineSet
EndChar

StartChar: n
Encoding: 110 110 81
Width: 1008
VWidth: 4000
Flags: HW
LayerCount: 2
Fore
SplineSet
162 96 m 6
 135.5078125 96 114 74.4921875 114 48 c 4
 114 21.5078125 135.5078125 0 162 0 c 6
 366 0 l 6
 392.4921875 0 414 21.5078125 414 48 c 4
 414 74.4921875 392.4921875 96 366 96 c 6
 162 96 l 6
622 96 m 6
 595.5078125 96 574 74.4921875 574 48 c 4
 574 21.5078125 595.5078125 0 622 0 c 6
 846 0 l 6
 872.4921875 0 894 21.5078125 894 48 c 4
 894 74.4921875 872.4921875 96 846 96 c 6
 622 96 l 6
221 51.1875 m 6
 221 24.6953125 242.5078125 3.1875 269 3.1875 c 4
 295.4921875 3.1875 317 24.6953125 317 51.1875 c 6
 317 708 l 6
 317 734.4921875 295.4921875 756 269 756 c 6
 169 756 l 6
 142.5078125 756 121 734.4921875 121 708 c 4
 121 681.5078125 142.5078125 660 169 660 c 6
 221 660 l 5
 221 51.1875 l 6
545.09375 680 m 4
 638.32421875 680 686 598.573242188 686 523.78125 c 6
 686 48 l 6
 686 21.5078125 707.5078125 0 734 0 c 4
 760.4921875 0 782 21.5078125 782 48 c 6
 782 523.78125 l 6
 782 660.2421875 683.733398438 776 545.09375 776 c 4
 486.357421875 776 436.733398438 762.047851562 392.52734375 734.330078125 c 4
 337.728515625 699.969726562 293.21875 649.301757812 233.297851562 582.6484375 c 4
 205.62890625 551.87109375 227.681640625 502.578125 269 502.578125 c 4
 283.168945312 502.578125 295.913085938 508.73046875 304.702148438 518.5078125 c 4
 418.381835938 644.9609375 455.84765625 680 545.09375 680 c 4
EndSplineSet
EndChar

StartChar: v
Encoding: 118 118 82
Width: 1008
VWidth: 4000
Flags: HW
LayerCount: 2
Fore
SplineSet
124 756 m 6
 97.5078125 756 76 734.4921875 76 708 c 4
 76 681.5078125 97.5078125 660 124 660 c 6
 384 660 l 6
 410.4921875 660 432 681.5078125 432 708 c 4
 432 734.4921875 410.4921875 756 384 756 c 6
 124 756 l 6
624 756 m 6
 597.5078125 756 576 734.4921875 576 708 c 4
 576 681.5078125 597.5078125 660 624 660 c 6
 884 660 l 6
 910.4921875 660 932 681.5078125 932 708 c 4
 932 734.4921875 910.4921875 756 884 756 c 6
 624 756 l 6
244 756 m 4
 210.119140625 756 187 721.7109375 199.321289062 690.43359375 c 6
 459.321289062 30.43359375 l 6
 474.998046875 -9.3603515625 531.490234375 -10.1240234375 548.209960938 29.287109375 c 6
 828.209960938 689.287109375 l 6
 841.541992188 720.711914062 818.40625 756 784 756 c 4
 764.145507812 756 747.08984375 743.918945312 739.790039062 726.712890625 c 6
 505.646484375 174.802734375 l 5
 288.678710938 725.56640625 l 6
 281.661132812 743.379882812 264.29296875 756 244 756 c 4
EndSplineSet
EndChar

StartChar: quotesingle
Encoding: 39 39 83
Width: 1008
VWidth: 4000
Flags: HW
LayerCount: 2
Fore
SplineSet
503.962890625 560 m 0
 528.826171875 560 549.299804688 578.9453125 551.72265625 603.174804688 c 0
 591.962890625 1005.57421875 591.962890625 1005.57421875 591.962890625 1008 c 0
 591.962890625 1034.4921875 570.455078125 1056 543.962890625 1056 c 0
 463.962890625 1056 463.962890625 1056 463.962890625 1056 c 2
 439.493164062 1056 413.721679688 1036.22753906 416.203125 1003.17480469 c 2
 456.203125 603.174804688 l 2
 458.625976562 578.9453125 479.099609375 560 503.962890625 560 c 0
EndSplineSet
EndChar

StartChar: seven
Encoding: 55 55 84
Width: 1008
VWidth: 4000
Flags: HW
LayerCount: 2
Fore
SplineSet
926.020507812 985.30078125 m 4
 951.9609375 1016.42871094 929.633789062 1064 889.131835938 1064 c 4
 874.311523438 1064 861.05078125 1057.26855469 852.243164062 1046.69921875 c 4
 651.74609375 806.102539062 417.131835938 505.823242188 417.131835938 48 c 4
 417.131835938 21.5078125 438.639648438 0 465.131835938 0 c 4
 491.624023438 0 513.131835938 21.5078125 513.131835938 48 c 4
 513.131835938 470.176757812 726.517578125 745.897460938 926.020507812 985.30078125 c 4
425.131835938 1076 m 4
 245.314453125 1076 70.8505859375 944.076171875 70.8505859375 748 c 4
 70.8505859375 721.5078125 92.3583984375 700 118.850585938 700 c 4
 145.342773438 700 166.850585938 721.5078125 166.850585938 748 c 4
 166.850585938 895.487304688 305.986328125 980 425.131835938 980 c 4
 568.112304688 980 629.180664062 921.296875 741.288085938 921.296875 c 4
 857.204101562 921.296875 916.83203125 975.974609375 922.651367188 981.655273438 c 4
 953.354492188 1011.62597656 931.899414062 1064 889.131835938 1064 c 4
 876.109375 1064 864.291015625 1058.80273438 855.639648438 1050.37109375 c 5
 856.375976562 1051.30761719 819.920898438 1017.296875 741.288085938 1017.296875 c 4
 654.274414062 1017.296875 580.15625 1076 425.131835938 1076 c 4
166.850585938 1008 m 6
 166.850585938 1034.4921875 145.342773438 1056 118.850585938 1056 c 4
 92.3583984375 1056 70.8505859375 1034.4921875 70.8505859375 1008 c 6
 70.8505859375 748 l 6
 70.8505859375 721.5078125 92.3583984375 700 118.850585938 700 c 4
 145.342773438 700 166.850585938 721.5078125 166.850585938 748 c 6
 166.850585938 1008 l 6
EndSplineSet
EndChar

StartChar: question
Encoding: 63 63 85
Width: 1008
VWidth: 4000
Flags: HW
LayerCount: 2
Fore
SplineSet
357.409179688 730.65625 m 1
 339.409179688 712.65625 l 1
 321.409179688 730.65625 l 1
 339.409179688 748.65625 l 1
 357.409179688 730.65625 l 1
261.409179688 730.65625 m 0
 261.409179688 687.607421875 296.360351562 652.65625 339.409179688 652.65625 c 0
 382.458007812 652.65625 417.409179688 687.607421875 417.409179688 730.65625 c 0
 417.409179688 773.705078125 382.458007812 808.65625 339.409179688 808.65625 c 0
 296.360351562 808.65625 261.409179688 773.705078125 261.409179688 730.65625 c 0
309.409179688 730.657226562 m 0
 309.409179688 747.225585938 322.840820312 760.657226562 339.409179688 760.657226562 c 0
 355.977539062 760.657226562 369.409179688 747.225585938 369.409179688 730.657226562 c 0
 369.409179688 714.088867188 355.977539062 700.657226562 339.409179688 700.657226562 c 0
 322.840820312 700.657226562 309.409179688 714.088867188 309.409179688 730.657226562 c 0
545.737304688 982 m 0
 643.545898438 982 736.784179688 912.20703125 736.784179688 851.8125 c 0
 736.784179688 785.952148438 714.319335938 740.229492188 660.294921875 698.962890625 c 0
 571.689453125 631.284179688 445.737304688 521.880859375 445.737304688 325 c 0
 445.737304688 298.5078125 467.245117188 277 493.737304688 277 c 0
 520.229492188 277 541.737304688 298.5078125 541.737304688 325 c 0
 541.737304688 464.317382812 620.083007812 547.463867188 718.4921875 622.630859375 c 0
 816.754882812 697.688476562 832.784179688 785.975585938 832.784179688 851.8125 c 0
 832.784179688 973.642578125 690.419921875 1078 545.737304688 1078 c 0
 351.984375 1078 162.05859375 889.748046875 271.161132812 692.891601562 c 0
 279.348632812 678.119140625 295.102539062 668.109375 313.174804688 668.109375 c 0
 349.715820312 668.109375 372.79296875 707.561523438 355.188476562 739.327148438 c 0
 340.817382812 765.256835938 335.31640625 788.831054688 335.31640625 810.284179688 c 0
 335.31640625 905.334960938 446.266601562 982 545.737304688 982 c 0
501.737304688 78.015625 m 1
 501.737304688 78.015625 505.737304688 79.142578125 505.737304688 78.015625 c 0
 502.59765625 76.015625 501.737304688 78.015625 501.737304688 78.015625 c 1
405.737304688 78.015625 m 0
 405.737304688 23.9052734375 449.658203125 -19.984375 503.737304688 -19.984375 c 0
 557.81640625 -19.984375 601.737304688 23.9052734375 601.737304688 78.015625 c 0
 601.737304688 132.107421875 557.829101562 176.015625 503.737304688 176.015625 c 0
 449.645507812 176.015625 405.737304688 132.107421875 405.737304688 78.015625 c 0
453.737304688 78.009765625 m 0
 453.737304688 105.624023438 476.123046875 128.009765625 503.737304688 128.009765625 c 0
 531.3515625 128.009765625 553.737304688 105.624023438 553.737304688 78.009765625 c 0
 553.737304688 50.3955078125 531.3515625 28.009765625 503.737304688 28.009765625 c 0
 476.123046875 28.009765625 453.737304688 50.3955078125 453.737304688 78.009765625 c 0
EndSplineSet
EndChar

StartChar: G
Encoding: 71 71 86
Width: 1008
VWidth: 4000
Flags: HW
LayerCount: 2
Fore
SplineSet
474 -20 m 4
 637.977539062 -20 777.170898438 110.374023438 838.823242188 270.805664062 c 4
 838.823242188 276.14453125 842 281.942382812 842 288 c 4
 842 314.4921875 820.4921875 336 794 336 c 4
 773.56640625 336 756.09765625 323.204101562 749.176757812 305.194335938 c 4
 704.584960938 189.159179688 600.745117188 76 474 76 c 4
 306.466796875 76 182 277.811523438 182 528 c 4
 182 776.354492188 293.099609375 980 454 980 c 4
 545.337890625 980 613.329101562 945.033203125 663.326171875 892.604492188 c 4
 703.502929688 850.47265625 732.077148438 795.9609375 747.720703125 739.228515625 c 4
 753.318359375 718.927734375 771.9296875 704 794 704 c 4
 825.728515625 704 848.673828125 734.331054688 840.279296875 764.771484375 c 4
 792.622070312 937.599609375 655.83984375 1076 454 1076 c 4
 240.028320312 1076 86 840.823242188 86 528 c 4
 86 217.588867188 252.862304688 -20 474 -20 c 4
842 1008 m 6
 842 1034.4921875 820.4921875 1056 794 1056 c 4
 767.5078125 1056 746 1034.4921875 746 1008 c 6
 746 752 l 6
 746 725.5078125 767.5078125 704 794 704 c 4
 820.4921875 704 842 725.5078125 842 752 c 6
 842 1008 l 6
746 48 m 6
 746 21.5078125 767.5078125 0 794 0 c 4
 820.4921875 0 842 21.5078125 842 48 c 6
 842 388 l 6
 842 414.4921875 820.4921875 436 794 436 c 4
 767.5078125 436 746 414.4921875 746 388 c 6
 746 48 l 6
874 340 m 6
 900.4921875 340 922 361.5078125 922 388 c 4
 922 414.4921875 900.4921875 436 874 436 c 6
 614 436 l 6
 587.5078125 436 566 414.4921875 566 388 c 4
 566 361.5078125 587.5078125 340 614 340 c 6
 874 340 l 6
EndSplineSet
EndChar

StartChar: W
Encoding: 87 87 87
Width: 1008
VWidth: 4000
Flags: HW
LayerCount: 2
Fore
SplineSet
424 1056 m 6
 397.5078125 1056 376 1034.4921875 376 1008 c 4
 376 981.5078125 397.5078125 960 424 960 c 6
 584 960 l 6
 610.4921875 960 632 981.5078125 632 1008 c 4
 632 1034.4921875 610.4921875 1056 584 1056 c 6
 424 1056 l 6
892 960 m 6
 918.4921875 960 940 981.5078125 940 1008 c 4
 940 1034.4921875 918.4921875 1056 892 1056 c 6
 768 1056 l 6
 741.5078125 1056 720 1034.4921875 720 1008 c 4
 720 981.5078125 741.5078125 960 768 960 c 6
 892 960 l 6
240 960 m 6
 266.4921875 960 288 981.5078125 288 1008 c 4
 288 1034.4921875 266.4921875 1056 240 1056 c 6
 116 1056 l 6
 89.5078125 1056 68 1034.4921875 68 1008 c 4
 68 981.5078125 89.5078125 960 116 960 c 6
 240 960 l 6
144 1056 m 4
 114.381835938 1056 91.7734375 1029.34570312 96.654296875 1000.06347656 c 6
 256.654296875 40.0634765625 l 6
 260.44140625 17.3427734375 280.2109375 0 304 0 c 6
 324 0 l 6
 347.732421875 0 367.46484375 17.259765625 371.318359375 39.9013671875 c 6
 531.318359375 979.901367188 l 6
 536.309570312 1009.22753906 513.688476562 1036 484 1036 c 4
 460.267578125 1036 440.53515625 1018.74023438 436.681640625 996.098632812 c 6
 314.392578125 277.653320312 l 5
 191.345703125 1015.93652344 l 6
 187.55859375 1038.65722656 167.7890625 1056 144 1056 c 4
524 1036 m 4
 494.311523438 1036 471.690429688 1009.2265625 476.681640625 979.901367188 c 6
 636.681640625 39.9013671875 l 6
 640.53515625 17.259765625 660.267578125 0 684 0 c 6
 704 0 l 6
 727.7890625 0 747.55859375 17.3427734375 751.345703125 40.0634765625 c 6
 911.345703125 1000.06347656 l 6
 916.225585938 1029.34472656 893.619140625 1056 864 1056 c 4
 840.2109375 1056 820.44140625 1038.65722656 816.654296875 1015.93652344 c 6
 693.607421875 277.653320312 l 5
 571.318359375 996.098632812 l 6
 567.46484375 1018.74023438 547.732421875 1036 524 1036 c 4
EndSplineSet
EndChar

StartChar: underscore
Encoding: 95 95 88
Width: 1008
VWidth: 4000
Flags: HW
LayerCount: 2
Fore
SplineSet
64 -204 m 6
 37.5078125 -204 16 -225.5078125 16 -252 c 4
 16 -278.4921875 37.5078125 -300 64 -300 c 6
 944 -300 l 6
 970.4921875 -300 992 -278.4921875 992 -252 c 4
 992 -225.5078125 970.4921875 -204 944 -204 c 6
 64 -204 l 6
EndSplineSet
EndChar

StartChar: g
Encoding: 103 103 89
Width: 1008
VWidth: 4000
Flags: HW
LayerCount: 2
Fore
SplineSet
846.723632812 -217.032226562 m 4
 893.94140625 -156.91015625 893.920898438 -67.0576171875 846.724609375 -6.9609375 c 4
 778.083007812 80.4423828125 628.172851562 96 504 96 c 4
 380.130859375 96 229.98046875 80.53515625 161.271484375 -6.9619140625 c 4
 114.073242188 -67.06640625 114.067382812 -156.919921875 161.271484375 -217.03125 c 4
 229.916015625 -304.4453125 379.845703125 -320 504 -320 c 4
 627.6953125 -320 777.969726562 -304.578125 846.723632812 -217.032226562 c 4
786 -112 m 4
 786 -135.4609375 779.39453125 -166.209960938 725.635742188 -190.645507812 c 4
 683.6328125 -209.737304688 612.229492188 -224 504 -224 c 4
 465.8515625 -224 288.4375 -223.552734375 236.813476562 -157.8125 c 4
 226.436523438 -144.598632812 222 -130.408203125 222 -112 c 4
 222 -88.4951171875 228.631835938 -57.7685546875 282.356445312 -33.349609375 c 4
 324.357421875 -14.2607421875 395.762695312 0 504 0 c 4
 542.162109375 0 719.5625 -0.44921875 771.184570312 -66.1826171875 c 4
 781.561523438 -79.3955078125 786 -93.5869140625 786 -112 c 4
222 498.015625 m 4
 222 598.553710938 303.450195312 680.015625 404 680.015625 c 4
 504.53515625 680.015625 586 598.55078125 586 498.015625 c 4
 586 397.465820312 504.538085938 316.015625 404 316.015625 c 4
 303.447265625 316.015625 222 397.462890625 222 498.015625 c 4
126 498.015625 m 4
 126 344.505859375 250.490234375 220.015625 404 220.015625 c 4
 557.493164062 220.015625 682 344.502929688 682 498.015625 c 4
 682 651.51171875 557.49609375 776.015625 404 776.015625 c 4
 250.487304688 776.015625 126 651.508789062 126 498.015625 c 4
586 498 m 4
 586 471.5078125 607.5078125 450 634 450 c 4
 660.4921875 450 682 471.5078125 682 498 c 4
 682 630.275390625 711.921875 644.747070312 734.65625 652.518554688 c 4
 748.020507812 657.086914062 767.64453125 660 794 660 c 4
 820.4921875 660 842 681.5078125 842 708 c 4
 842 734.4921875 820.4921875 756 794 756 c 4
 755.376953125 756 665.754882812 754.013671875 619.783203125 675.653320312 c 4
 594.377929688 632.346679688 586 573.889648438 586 498 c 4
404 220 m 4
 430.4921875 220 452 241.5078125 452 268 c 4
 452 294.4921875 430.4921875 316 404 316 c 4
 342.37890625 316 218.493164062 310.954101562 171.416015625 226.830078125 c 4
 150.088867188 188.717773438 145.920898438 131.729492188 173.173828125 89.2705078125 c 4
 216.549804688 21.693359375 324.681640625 0 504 0 c 4
 530.4921875 0 552 21.5078125 552 48 c 4
 552 74.4921875 530.4921875 96 504 96 c 4
 406.475585938 96 340.109375 103.627929688 300.590820312 115.30859375 c 4
 250.140625 130.220703125 250.140625 147.262695312 250.140625 157.125 c 4
 250.140625 177.962890625 258.184570312 190.489257812 281.297851562 201.225585938 c 4
 304.03125 211.787109375 344.548828125 220 404 220 c 4
EndSplineSet
EndChar

StartChar: o
Encoding: 111 111 90
Width: 1008
VWidth: 4000
Flags: HW
LayerCount: 2
Fore
SplineSet
231.9921875 378.015625 m 4
 231.9921875 548.516601562 357.416992188 680.015625 504.0078125 680.015625 c 4
 650.581054688 680.015625 776.0078125 548.517578125 776.0078125 378.015625 c 4
 776.0078125 207.498046875 650.583007812 76.015625 504.0078125 76.015625 c 4
 357.415039062 76.015625 231.9921875 207.499023438 231.9921875 378.015625 c 4
135.9921875 378.015625 m 4
 135.9921875 161.907226562 297.131835938 -19.984375 504.0078125 -19.984375 c 4
 710.870117188 -19.984375 872.0078125 161.908203125 872.0078125 378.015625 c 4
 872.0078125 594.107421875 710.872070312 776.015625 504.0078125 776.015625 c 4
 297.129882812 776.015625 135.9921875 594.108398438 135.9921875 378.015625 c 4
EndSplineSet
EndChar

StartChar: w
Encoding: 119 119 91
Width: 1008
VWidth: 4000
Flags: HW
LayerCount: 2
Fore
SplineSet
124 756 m 6
 97.5078125 756 76 734.4921875 76 708 c 4
 76 681.5078125 97.5078125 660 124 660 c 6
 256 660 l 6
 282.4921875 660 304 681.5078125 304 708 c 4
 304 734.4921875 282.4921875 756 256 756 c 6
 124 756 l 6
752 756 m 6
 725.5078125 756 704 734.4921875 704 708 c 4
 704 681.5078125 725.5078125 660 752 660 c 6
 884 660 l 6
 910.4921875 660 932 681.5078125 932 708 c 4
 932 734.4921875 910.4921875 756 884 756 c 6
 752 756 l 6
434 756 m 6
 407.5078125 756 386 734.4921875 386 708 c 4
 386 681.5078125 407.5078125 660 434 660 c 6
 574 660 l 6
 600.4921875 660 622 681.5078125 622 708 c 4
 622 734.4921875 600.4921875 756 574 756 c 6
 434 756 l 6
664 0 m 4
 686.1171875 0 704.759765625 14.9912109375 710.314453125 35.357421875 c 6
 890.314453125 695.357421875 l 6
 898.609375 725.771484375 875.670898438 756 844 756 c 4
 821.8828125 756 803.240234375 741.008789062 797.685546875 720.642578125 c 6
 666.01953125 237.868164062 l 5
 550.5703125 699.663085938 l 6
 545.354492188 720.526367188 526.469726562 736 504 736 c 4
 481.530273438 736 462.645507812 720.526367188 457.4296875 699.663085938 c 6
 341.98046875 237.868164062 l 5
 210.314453125 720.642578125 l 6
 204.759765625 741.008789062 186.1171875 756 164 756 c 4
 132.329101562 756 109.390625 725.771484375 117.685546875 695.357421875 c 6
 297.685546875 35.357421875 l 6
 303.240234375 14.9912109375 321.8828125 0 344 0 c 4
 366.469726562 0 385.354492188 15.4736328125 390.5703125 36.3369140625 c 6
 504 490.053710938 l 5
 617.4296875 36.3369140625 l 6
 622.645507812 15.4736328125 641.530273438 0 664 0 c 4
EndSplineSet
EndChar

StartChar: braceright
Encoding: 125 125 92
Width: 1008
VWidth: 4000
Flags: HW
LayerCount: 2
Fore
SplineSet
304 -269.328125 m 0
 450.540039062 -269.328125 552 -168.251953125 552 -61.328125 c 2
 552 189.34375 l 2
 552 196.291015625 552 204.672851562 572.767578125 220.254882812 c 2
 732.759765625 340.249023438 l 2
 769.538085938 367.833007812 749.76953125 426.671875 704 426.671875 c 0
 693.215820312 426.671875 683.2578125 423.108398438 675.240234375 417.094726562 c 2
 515.232421875 297.088867188 l 2
 495.41796875 282.221679688 456 249.331054688 456 189.34375 c 2
 456 -61.328125 l 2
 456 -113.969726562 397.657226562 -173.328125 304 -173.328125 c 0
 277.5078125 -173.328125 256 -194.8359375 256 -221.328125 c 0
 256 -247.8203125 277.5078125 -269.328125 304 -269.328125 c 0
304 930.671875 m 0
 397.654296875 930.671875 456 871.31640625 456 818.671875 c 2
 456 568 l 2
 456 508.045898438 495.370117188 475.158203125 515.232421875 460.254882812 c 2
 675.240234375 340.249023438 l 2
 706.720703125 316.638671875 752 339.268554688 752 378.671875 c 0
 752 394.379882812 744.438476562 408.3359375 732.759765625 417.094726562 c 2
 572.767578125 537.088867188 l 2
 564.28515625 543.453125 559.227539062 548.752929688 556.521484375 552.657226562 c 0
 553.282226562 557.329101562 552 560.495117188 552 568 c 2
 552 818.671875 l 2
 552 925.600585938 450.53515625 1026.671875 304 1026.671875 c 0
 277.5078125 1026.671875 256 1005.1640625 256 978.671875 c 0
 256 952.1796875 277.5078125 930.671875 304 930.671875 c 0
EndSplineSet
EndChar

StartChar: NameMe.65536
Encoding: 65536 -1 93
Width: 1008
VWidth: 4000
Flags: HW
LayerCount: 2
Fore
SplineSet
1296 1168 m 0
 1296 1135.203125 1328.26953125 1112.15039062 1359.17089844 1122.45117188 c 2
 1599.17089844 1202.45117188 l 2
 1618.23730469 1208.80664062 1632 1226.80859375 1632 1248 c 0
 1632 1280.796875 1599.73046875 1303.84960938 1568.82910156 1293.54882812 c 2
 1328.82910156 1213.54882812 l 2
 1309.76269531 1207.19335938 1296 1189.19140625 1296 1168 c 0
3248 1208 m 1
 3240 1200 l 1
 3232 1208 l 1
 3240 1216 l 1
 3248 1208 l 1
3152 1208 m 0
 3152 1159.42871094 3191.42871094 1120 3240 1120 c 0
 3288.57128906 1120 3328 1159.42871094 3328 1208 c 0
 3328 1256.57128906 3288.57128906 1296 3240 1296 c 0
 3191.42871094 1296 3152 1256.57128906 3152 1208 c 0
3200 1208 m 0
 3200 1230.09179688 3217.90820312 1248 3240 1248 c 0
 3262.09179688 1248 3280 1230.09179688 3280 1208 c 0
 3280 1185.90820312 3262.09179688 1168 3240 1168 c 0
 3217.90820312 1168 3200 1185.90820312 3200 1208 c 0
3728 1208 m 1
 3720 1200 l 1
 3712 1208 l 1
 3720 1216 l 1
 3728 1208 l 1
3632 1208 m 0
 3632 1159.42871094 3671.42871094 1120 3720 1120 c 0
 3768.57128906 1120 3808 1159.42871094 3808 1208 c 0
 3808 1256.57128906 3768.57128906 1296 3720 1296 c 0
 3671.42871094 1296 3632 1256.57128906 3632 1208 c 0
3680 1208 m 0
 3680 1230.09179688 3697.90820312 1248 3720 1248 c 0
 3742.09179688 1248 3760 1230.09179688 3760 1208 c 0
 3760 1185.90820312 3742.09179688 1168 3720 1168 c 0
 3697.90820312 1168 3680 1185.90820312 3680 1208 c 0
2328.79589844 1207.54199219 m 2
 2290.16992188 1180.90332031 2309.27929688 1120 2356 1120 c 0
 2366.09667969 1120 2375.47070312 1123.12402344 2383.20410156 1128.45800781 c 2
 2472.88671875 1190.30761719 l 1
 2570.02734375 1127.63574219 l 2
 2601.76757812 1107.15917969 2644 1130.078125 2644 1168 c 0
 2644 1184.92480469 2635.22070312 1199.81640625 2621.97265625 1208.36425781 c 2
 2497.97265625 1288.36425781 l 2
 2481.77441406 1298.81347656 2460.75976562 1298.55175781 2444.79589844 1287.54199219 c 2
 2328.79589844 1207.54199219 l 2
EndSplineSet
EndChar

StartChar: NameMe.65537
Encoding: 65537 -1 94
Width: 1008
VWidth: 4000
Flags: HW
LayerCount: 2
Fore
SplineSet
182.5078125 72.134765625 m 6
 163.970703125 40.35546875 187.006835938 0 224 0 c 4
 241.696289062 0 257.168945312 9.5966796875 265.4921875 23.865234375 c 6
 825.4921875 983.865234375 l 6
 844.029296875 1015.64453125 820.993164062 1056 784 1056 c 4
 766.303710938 1056 750.831054688 1046.40332031 742.5078125 1032.13476562 c 6
 182.5078125 72.134765625 l 6
EndSplineSet
EndChar

StartChar: NameMe.65538
Encoding: 65538 -1 95
Width: 1008
VWidth: 4000
Flags: HW
LayerCount: 2
Fore
SplineSet
101.979492188 -248.794921875 m 2
 84.38671875 -280.559570312 107.46484375 -320 144 -320 c 0
 162.077148438 -320 177.833984375 -309.985351562 186.020507812 -295.205078125 c 2
 906.020507812 1004.79492188 l 2
 923.61328125 1036.55957031 900.53515625 1076 864 1076 c 0
 845.922851562 1076 830.166015625 1065.98535156 821.979492188 1051.20507812 c 2
 101.979492188 -248.794921875 l 2
EndSplineSet
EndChar

StartChar: NameMe.65539
Encoding: 65539 -1 96
Width: 1008
VWidth: 4000
Flags: HW
LayerCount: 2
Fore
SplineSet
785.592773438 1276.78027344 m 0
 784.642578125 1275.56738281 737.174804688 1216 644 1216 c 0
 595.4296875 1216 565.661132812 1230.83984375 525.419921875 1250.9609375 c 0
 485.661132812 1270.83984375 435.4296875 1296 364 1296 c 0
 221.034179688 1296 149.194335938 1201.58300781 145.577148438 1196.75976562 c 0
 121.966796875 1165.27929688 144.596679688 1120 184 1120 c 0
 199.69921875 1120 213.647460938 1127.55273438 222.407226562 1139.21972656 c 0
 223.357421875 1140.43261719 270.825195312 1200 364 1200 c 0
 412.5703125 1200 442.338867188 1185.16015625 482.580078125 1165.0390625 c 0
 522.338867188 1145.16015625 572.5703125 1120 644 1120 c 0
 786.965820312 1120 858.805664062 1214.41699219 862.422851562 1219.24023438 c 0
 886.033203125 1250.72070312 863.403320312 1296 824 1296 c 0
 808.30078125 1296 794.352539062 1288.44726562 785.592773438 1276.78027344 c 0
EndSplineSet
EndChar

StartChar: NameMe.65540
Encoding: 65540 -1 97
Width: 1008
VWidth: 4000
Flags: HW
LayerCount: 2
Fore
SplineSet
143.983398438 296 m 6
 117.491210938 296 95.9833984375 274.4921875 95.9833984375 248 c 4
 95.9833984375 221.5078125 117.491210938 200 143.983398438 200 c 6
 863.983398438 200 l 6
 890.475585938 200 911.983398438 221.5078125 911.983398438 248 c 4
 911.983398438 274.4921875 890.475585938 296 863.983398438 296 c 6
 143.983398438 296 l 6
143.978515625 248.001953125 m 5
 863.978515625 248.001953125 l 1029
143.983398438 556 m 6
 117.491210938 556 95.9833984375 534.4921875 95.9833984375 508 c 4
 95.9833984375 481.5078125 117.491210938 460 143.983398438 460 c 6
 863.983398438 460 l 6
 890.475585938 460 911.983398438 481.5078125 911.983398438 508 c 4
 911.983398438 534.4921875 890.475585938 556 863.983398438 556 c 6
 143.983398438 556 l 6
143.978515625 508 m 5
 863.978515625 508 l 1029
95.9833984375 -272 m 4
 95.9833984375 -298.4921875 117.491210938 -320 143.983398438 -320 c 4
 164.638671875 -320 182.264648438 -306.924804688 189.028320312 -288.606445312 c 6
 669.028320312 1011.39355469 l 6
 680.525390625 1042.53027344 657.426757812 1076 623.983398438 1076 c 4
 603.328125 1076 585.702148438 1062.92480469 578.938476562 1044.60644531 c 6
 98.9384765625 -255.393554688 l 6
 98.9384765625 -260.569335938 95.9833984375 -266.1640625 95.9833984375 -272 c 4
143.978515625 -272.000976562 m 5
 623.978515625 1027.99902344 l 1029
335.983398438 -272 m 4
 335.983398438 -298.4921875 357.491210938 -320 383.983398438 -320 c 4
 404.638671875 -320 422.264648438 -306.924804688 429.028320312 -288.606445312 c 6
 909.028320312 1011.39355469 l 6
 920.525390625 1042.53027344 897.426757812 1076 863.983398438 1076 c 4
 843.328125 1076 825.702148438 1062.92480469 818.938476562 1044.60644531 c 6
 338.938476562 -255.393554688 l 6
 338.938476562 -260.569335938 335.983398438 -266.1640625 335.983398438 -272 c 4
383.978515625 -272.000976562 m 5
 863.978515625 1027.99902344 l 1029
EndSplineSet
EndChar

StartChar: NameMe.65541
Encoding: 65541 -1 98
Width: 1008
VWidth: 4000
Flags: HW
LayerCount: 2
Fore
SplineSet
342 797.859375 m 0
 342 887.438476562 414.569335938 960 504.15625 960 c 0
 593.725585938 960 666.296875 887.440429688 666.296875 797.859375 c 0
 666.296875 708.275390625 593.720703125 635.703125 504.15625 635.703125 c 0
 414.573242188 635.703125 342 708.276367188 342 797.859375 c 0
246 797.859375 m 0
 246 655.317382812 361.614257812 539.703125 504.15625 539.703125 c 0
 646.685546875 539.703125 762.296875 655.318359375 762.296875 797.859375 c 0
 762.296875 940.403320312 646.680664062 1056 504.15625 1056 c 0
 361.618164062 1056 246 940.405273438 246 797.859375 c 0
EndSplineSet
EndChar

StartChar: NameMe.65542
Encoding: 65542 -1 99
Width: 1008
VWidth: 4000
Flags: HW
LayerCount: 2
Fore
SplineSet
177.934570312 801.934570312 m 6
 147.794921875 832.073242188 96 810.49609375 96 768 c 4
 96 754.75390625 101.376953125 742.75390625 110.065429688 734.065429688 c 6
 830.065429688 14.0654296875 l 6
 860.205078125 -16.0732421875 912 5.50390625 912 48 c 4
 912 61.24609375 906.623046875 73.24609375 897.934570312 81.9345703125 c 6
 177.934570312 801.934570312 l 6
110.065429688 81.9345703125 m 6
 79.9267578125 51.794921875 101.50390625 0 144 0 c 4
 157.24609375 0 169.24609375 5.376953125 177.934570312 14.0654296875 c 6
 897.918945312 734.065429688 l 6
 928.057617188 764.205078125 906.48046875 816 863.984375 816 c 4
 850.73828125 816 838.73828125 810.623046875 830.049804688 801.934570312 c 6
 110.065429688 81.9345703125 l 6
EndSplineSet
EndChar

StartChar: NameMe.65543
Encoding: 65543 -1 100
Width: 1008
VWidth: 4000
Flags: HW
LayerCount: 2
Fore
SplineSet
371.568359375 -265.590820312 m 6
 354.766601562 -297.326171875 377.87109375 -336 414.01953125 -336 c 4
 432.419921875 -336 448.416015625 -325.624023438 456.470703125 -310.409179688 c 4
 459.870117188 -303.98828125 642.01953125 41.72265625 642.01953125 392 c 4
 642.01953125 550.669921875 605.103515625 706.048828125 564.608398438 830.34765625 c 4
 513.986328125 985.729492188 457.333984375 1092.77832031 456.470703125 1094.40917969 c 4
 448.416015625 1109.62402344 432.419921875 1120 414.01953125 1120 c 4
 377.87109375 1120 354.766601562 1081.32617188 371.568359375 1049.59082031 c 6
 371.568359375 1049.59082031 546.01953125 718.211914062 546.01953125 392 c 4
 546.01953125 65.7880859375 371.568359375 -265.590820312 371.568359375 -265.590820312 c 6
EndSplineSet
EndChar

StartChar: NameMe.65544
Encoding: 65544 -1 101
Width: 1008
VWidth: 4000
Flags: HW
LayerCount: 2
Fore
SplineSet
224 96 m 6
 197.5078125 96 176 74.4921875 176 48 c 4
 176 21.5078125 197.5078125 0 224 0 c 6
 784 0 l 6
 810.4921875 0 832 21.5078125 832 48 c 4
 832 74.4921875 810.4921875 96 784 96 c 6
 224 96 l 6
456 48 m 6
 456 21.5078125 477.5078125 0 504 0 c 4
 530.4921875 0 552 21.5078125 552 48 c 6
 552 1008 l 6
 552 1034.4921875 530.4921875 1056 504 1056 c 4
 486.2265625 1056 470.697265625 1046.31933594 462.400390625 1031.94824219 c 4
 419.290039062 957.278320312 331.663085938 866.547851562 211.5625 834.370117188 c 4
 191.091796875 828.885742188 176 810.19140625 176 788 c 4
 176 756.420898438 206.065429688 733.4921875 236.4375 741.629882812 c 4
 326.672851562 765.805664062 400.137695312 814.478515625 456 869.217773438 c 5
 456 48 l 6
EndSplineSet
EndChar

StartChar: NameMe.65545
Encoding: 65545 -1 102
Width: 1008
VWidth: 4000
Flags: HW
LayerCount: 2
Fore
SplineSet
472 1208 m 4
 472 1225.70996094 486.290039062 1240 504 1240 c 4
 521.709960938 1240 536 1225.70996094 536 1208 c 4
 536 1190.29003906 521.709960938 1176 504 1176 c 4
 486.290039062 1176 472 1190.29003906 472 1208 c 4
376 1208 m 4
 376 1137.33496094 433.334960938 1080 504 1080 c 4
 574.665039062 1080 632 1137.33496094 632 1208 c 4
 632 1278.66503906 574.665039062 1336 504 1336 c 4
 433.334960938 1336 376 1278.66503906 376 1208 c 4
EndSplineSet
EndChar

StartChar: NameMe.65546
Encoding: 65546 -1 103
Width: 1008
VWidth: 4000
Flags: HW
LayerCount: 2
Fore
SplineSet
337.934570312 1041.93457031 m 6
 307.794921875 1072.07324219 256 1050.49609375 256 1008 c 4
 256 994.75390625 261.376953125 982.75390625 270.065429688 974.065429688 c 6
 670.065429688 574.065429688 l 6
 700.205078125 543.926757812 752 565.50390625 752 608 c 4
 752 621.24609375 746.623046875 633.24609375 737.934570312 641.934570312 c 6
 337.934570312 1041.93457031 l 6
EndSplineSet
EndChar

StartChar: NameMe.65547
Encoding: 65547 -1 104
Width: 1008
VWidth: 4000
Flags: HW
LayerCount: 2
Fore
SplineSet
311.653320312 668.215820312 m 6
 281.513671875 698.354492188 229.71875 676.77734375 229.71875 634.28125 c 4
 229.71875 621.03515625 235.095703125 609.03515625 243.784179688 600.346679688 c 6
 696.346679688 147.784179688 l 6
 726.486328125 117.645507812 778.28125 139.22265625 778.28125 181.71875 c 4
 778.28125 194.96484375 772.904296875 206.96484375 764.215820312 215.653320312 c 6
 311.653320312 668.215820312 l 6
243.784179688 215.653320312 m 6
 213.645507812 185.513671875 235.22265625 133.71875 277.71875 133.71875 c 4
 290.96484375 133.71875 302.96484375 139.095703125 311.653320312 147.784179688 c 6
 764.215820312 600.346679688 l 6
 794.354492188 630.486328125 772.77734375 682.28125 730.28125 682.28125 c 4
 717.03515625 682.28125 705.03515625 676.904296875 696.346679688 668.215820312 c 6
 243.784179688 215.653320312 l 6
EndSplineSet
EndChar

StartChar: NameMe.65548
Encoding: 65548 -1 105
Width: 1008
VWidth: 4000
Flags: HW
LayerCount: 2
Fore
SplineSet
165.125 128 m 0
 165.125 147.541992188 190.521484375 180 237.125 180 c 0
 276.041015625 180 308.177734375 174.548828125 336.216796875 165.638671875 c 0
 336.216796875 162.444335938 333.72265625 159.328125 332.413085938 156.293945312 c 0
 299.913085938 81.044921875 252.625976562 75.478515625 226.87109375 75.990234375 c 0
 167.661132812 77.16015625 165.125 108.637695312 165.125 128 c 0
456.796875 321.40625 m 0
 456.796875 465.692382812 382.875 551.989257812 382.875 757.4375 c 0
 382.875 884.3046875 430.63671875 927.266601562 454.484375 944.401367188 c 0
 475.7265625 959.665039062 517.321289062 980.665039062 594.517578125 980.001953125 c 0
 651.385742188 979.509765625 696.390625 964.631835938 727.87890625 941.930664062 c 0
 766.662109375 913.969726562 789.125976562 872.774414062 789.125976562 817.748046875 c 0
 789.125976562 791.357421875 810.70703125 769.96875 837.125 769.96875 c 0
 863.6171875 769.96875 885.125 791.4765625 885.124023438 818.189453125 c 0
 884.482421875 960.428710938 777.083984375 1076.01757812 590.904296875 1076.01757812 c 0
 539.803710938 1076.01757812 286.875 1075.24414062 286.875 757.4375 c 0
 286.875 541.931640625 360.796875 441.751953125 360.796875 321.40625 c 0
 360.796875 299.9453125 359.677734375 279.173828125 357.510742188 259.450195312 c 1
 322.098632812 269.819335938 282.235351562 276 237.125 276 c 0
 139.377929688 276 69.125 202.805664062 69.125 128 c 0
 69.125 46.2626953125 123.158203125 -20.0341796875 229.360351562 -20.0341796875 c 0
 308.158203125 -20.0341796875 380.861328125 22.908203125 422.326171875 122.39453125 c 1
 442.793945312 108.349609375 462.209960938 92.6494140625 482.153320312 76.390625 c 0
 535.87890625 32.59375 598.204101562 -20 693.125 -20 c 0
 857.844726562 -20 938.875 141.79296875 938.875 308.609375 c 0
 938.875 335.1015625 917.3671875 356.609375 890.875 356.609375 c 0
 864.3828125 356.609375 842.875 335.1015625 842.875 308.609375 c 0
 842.875 232.399414062 815.901367188 76 693.125 76 c 0
 636.734375 76 598.862304688 105.086914062 542.748046875 150.83203125 c 0
 515.891601562 172.724609375 485.752929688 197.52734375 449.083007812 219.266601562 c 0
 454.362304688 251.883789062 456.796875 286.188476562 456.796875 321.40625 c 0
825.125 818 m 1
 807.125 800 l 1
 789.125 818 l 1
 807.125 836 l 1
 825.125 818 l 1
729.125 818 m 0
 729.125 774.951171875 764.076171875 740 807.125 740 c 0
 850.173828125 740 885.125 774.951171875 885.125 818 c 0
 885.125 861.048828125 850.173828125 896 807.125 896 c 0
 764.076171875 896 729.125 861.048828125 729.125 818 c 0
777.125 817.998046875 m 0
 777.125 834.56640625 790.556640625 847.998046875 807.125 847.998046875 c 0
 823.693359375 847.998046875 837.125 834.56640625 837.125 817.998046875 c 0
 837.125 801.4296875 823.693359375 787.998046875 807.125 787.998046875 c 0
 790.556640625 787.998046875 777.125 801.4296875 777.125 817.998046875 c 0
166.25 549.203125 m 2
 139.7578125 549.203125 118.25 527.6953125 118.25 501.203125 c 0
 118.25 474.7109375 139.7578125 453.203125 166.25 453.203125 c 2
 602 453.203125 l 2
 628.4921875 453.203125 650 474.7109375 650 501.203125 c 0
 650 527.6953125 628.4921875 549.203125 602 549.203125 c 2
 166.25 549.203125 l 2
EndSplineSet
EndChar

StartChar: NameMe.65549
Encoding: 65549 -1 106
Width: 1008
VWidth: 4000
Flags: HW
LayerCount: 2
Fore
SplineSet
63.060546875 365.232421875 m 0
 63.060546875 52.6455078125 267.912109375 -194.890625 510.236328125 -194.890625 c 0
 740.557617188 -194.890625 831.502929688 -53.4033203125 849.423828125 -6.98046875 c 0
 861.481445312 24.2529296875 838.369140625 58.28125 804.626953125 58.28125 c 0
 784.21875 58.28125 766.767578125 45.5166015625 759.829101562 27.54296875 c 1
 760.1640625 28.4052734375 744.879882812 -9.1259765625 700.169921875 -43.115234375 c 0
 662.880859375 -71.462890625 604.180664062 -98.890625 510.236328125 -98.890625 c 0
 320.193359375 -98.890625 159.060546875 110.3515625 159.060546875 365.232421875 c 0
 159.060546875 676.895507812 328.966796875 910.328125 532.689453125 910.328125 c 0
 650.966796875 910.328125 736.395507812 865.185546875 789.219726562 774.977539062 c 0
 828.984375 707.07421875 848.939453125 614.333984375 848.939453125 509.25 c 0
 848.939453125 502.513671875 848.192382812 382.139648438 795.401367188 275.890625 c 0
 785.627929688 256.21875 753.633789062 198 717.298828125 198 c 0
 709.943359375 198 686.548828125 198 677.728515625 210.869140625 c 0
 673.033203125 217.71875 663.859375 239.416992188 674.501953125 297.407226562 c 2
 764.086914062 688.103515625 l 2
 770.963867188 718.099609375 748.138671875 746.859375 717.298828125 746.859375 c 0
 694.502929688 746.859375 675.399414062 730.935546875 670.509765625 709.615234375 c 0
 580.477539062 316.963867188 580.477539062 316.963867188 580.294921875 315.991210938 c 0
 565.865234375 238.416992188 575.59375 190.09375 598.486328125 156.69140625 c 0
 616.0546875 131.057617188 650.6640625 102 717.298828125 102 c 0
 872.153320312 102 944.939453125 359.767578125 944.939453125 509.25 c 0
 944.939453125 625.916015625 923.747070312 735.228515625 872.122070312 823.385742188 c 0
 827.095703125 900.276367188 731.197265625 1006.328125 532.689453125 1006.328125 c 0
 277.907226562 1006.328125 63.060546875 738.76953125 63.060546875 365.232421875 c 0
545.158203125 673.3125 m 0
 594.018554688 673.3125 636.625976562 620.734375 636.625976562 575.23046875 c 0
 636.625976562 574.671875 633.298828125 547.500976562 633.298828125 547.21875 c 0
 633.298828125 520.7265625 654.806640625 499.21875 681.298828125 499.21875 c 0
 703.852539062 499.21875 722.794921875 514.807617188 727.927734375 535.790039062 c 0
 755.1796875 647.192382812 660.982421875 769.3125 545.158203125 769.3125 c 0
 388.875976562 769.3125 262.642578125 550.4140625 262.642578125 327.125 c 0
 262.642578125 177.280273438 341.512695312 82.046875 440.376953125 82.046875 c 0
 477.372070312 82.046875 614.049804688 88.0703125 673.6015625 293.819335938 c 0
 682.446289062 324.379882812 659.470703125 355.171875 627.486328125 355.171875 c 0
 605.626953125 355.171875 587.161132812 340.528320312 581.370117188 320.524414062 c 0
 568.752929688 276.930664062 544.240234375 219.201171875 499.220703125 193.060546875 c 0
 482.987304688 183.634765625 464.291015625 178.046875 440.376953125 178.046875 c 0
 390.806640625 178.046875 358.642578125 246.508789062 358.642578125 327.125 c 0
 358.642578125 510.90234375 459.6171875 673.3125 545.158203125 673.3125 c 0
EndSplineSet
EndChar

StartChar: NameMe.65550
Encoding: 65550 -1 107
Width: 1008
VWidth: 4000
Flags: HW
LayerCount: 2
Fore
SplineSet
634 -124 m 0
 626.899414062 -124 599.140625 -128.65234375 557.850585938 -128.65234375 c 0
 383.997070312 -128.65234375 302.114257812 -42.7412109375 257.864257812 35.890625 c 0
 208.583007812 123.461914062 182 249.125976562 182 408 c 0
 182 644.006835938 225.060546875 866.252929688 369.88671875 946.327148438 c 0
 409.345703125 968.143554688 456.58203125 980 514 980 c 0
 650.353515625 980 724.03125 912.145507812 766.8125 829.45703125 c 0
 806.538085938 752.674804688 826 647.87890625 826 530.015625 c 0
 826 413.069335938 816.2734375 337.153320312 802.596679688 293.0703125 c 0
 791.5 257.302734375 779.40625 245.844726562 773.248046875 242.076171875 c 0
 744.943359375 224.755859375 702 267.440429688 702 303.8125 c 0
 702 330.3046875 680.4921875 351.8125 654 351.8125 c 0
 627.5078125 351.8125 606 330.3046875 606 303.8125 c 0
 606 254.004882812 630.291992188 211.317382812 661.743164062 182.404296875 c 0
 686.860351562 159.3125 719.1796875 142.0625 756.25 142.0625 c 0
 809.477539062 142.0625 864.700195312 169.197265625 894.305664062 264.625 c 0
 912.88671875 324.516601562 922 407.998046875 922 530.015625 c 0
 922 608.674804688 918.831054688 915.196289062 700.903320312 1032.30761719 c 0
 647.663085938 1060.91894531 585.040039062 1076 514 1076 c 0
 390.53125 1076 248.536132812 1030.16601562 163.509765625 851.762695312 c 0
 109.647460938 738.748046875 86 589.911132812 86 408 c 0
 86 272.381835938 100.084960938 -60.6416015625 351.44140625 -181.419921875 c 0
 424.497070312 -216.522460938 518.631835938 -233.908203125 639.658203125 -219.668945312 c 0
 663.487304688 -216.866210938 682 -196.578125 682 -172 c 0
 682 -145.5078125 660.4921875 -124 634 -124 c 0
653.296875 266.5 m 0
 679.7890625 266.5 701.296875 288.0078125 701.296875 314.5 c 2
 700.609375 643.883789062 l 2
 700.553710938 670.328125 679.067382812 691.78125 652.609375 691.78125 c 0
 626.1171875 691.78125 604.609375 670.2734375 604.609375 643.78125 c 2
 605.296875 314.397460938 l 2
 605.296875 287.953125 626.838867188 266.5 653.296875 266.5 c 0
513.296875 826.671875 m 0
 397.903320312 826.671875 325.296875 758.146484375 325.296875 658.671875 c 0
 325.296875 632.1796875 346.8046875 610.671875 373.296875 610.671875 c 0
 399.7890625 610.671875 421.296875 632.1796875 421.296875 658.671875 c 0
 421.296875 694.275390625 438.212890625 708.219726562 448.232421875 714.77734375 c 0
 462.391601562 724.045898438 484.755859375 730.671875 513.296875 730.671875 c 0
 547.28125 730.671875 604.609375 719.423828125 604.609375 643.53125 c 0
 604.609375 592.0234375 560.751953125 559.614257812 476.028320312 534.20703125 c 0
 426.426757812 519.340820312 305.296875 477.013671875 305.296875 338.671875 c 0
 305.296875 222.888671875 372.930664062 138.984375 473.296875 138.984375 c 0
 579.559570312 138.984375 701.296875 231.62890625 701.296875 358.671875 c 0
 701.296875 385.1640625 679.7890625 406.671875 653.296875 406.671875 c 0
 626.8046875 406.671875 605.296875 385.1640625 605.296875 358.671875 c 0
 605.296875 286.36328125 527.5625 234.984375 473.296875 234.984375 c 0
 404.685546875 234.984375 401.296875 321.567382812 401.296875 338.671875 c 0
 401.296875 376.094726562 413.711914062 415.291992188 503.596679688 442.23046875 c 0
 589.873046875 468.104492188 700.609375 520.0078125 700.609375 643.53125 c 0
 700.609375 750.6640625 626.6953125 826.671875 513.296875 826.671875 c 0
EndSplineSet
EndChar

StartChar: NameMe.65551
Encoding: 65551 -1 108
Width: 1008
VWidth: 4000
Flags: HW
LayerCount: 2
Fore
SplineSet
176 48 m 4
 176 21.5078125 197.5078125 0 224 0 c 4
 247.125 0 266.453125 16.388671875 270.9921875 38.17578125 c 6
 470.9921875 998.17578125 l 6
 477.194335938 1027.94824219 454.43359375 1056 424 1056 c 4
 400.875 1056 381.546875 1039.61132812 377.0078125 1017.82421875 c 6
 177.0078125 57.82421875 l 6
 177.0078125 54.65234375 176 51.3662109375 176 48 c 4
536 48 m 4
 536 21.5078125 557.5078125 0 584 0 c 4
 607.125 0 626.453125 16.388671875 630.9921875 38.17578125 c 6
 830.9921875 998.17578125 l 6
 837.194335938 1027.94824219 814.43359375 1056 784 1056 c 4
 760.875 1056 741.546875 1039.61132812 737.0078125 1017.82421875 c 6
 537.0078125 57.82421875 l 6
 537.0078125 54.65234375 536 51.3662109375 536 48 c 4
124 736 m 6
 97.5078125 736 76 714.4921875 76 688 c 4
 76 661.5078125 97.5078125 640 124 640 c 6
 884 640 l 6
 910.4921875 640 932 661.5078125 932 688 c 4
 932 714.4921875 910.4921875 736 884 736 c 6
 124 736 l 6
124 416 m 6
 97.5078125 416 76 394.4921875 76 368 c 4
 76 341.5078125 97.5078125 320 124 320 c 6
 884 320 l 6
 910.4921875 320 932 341.5078125 932 368 c 4
 932 394.4921875 910.4921875 416 884 416 c 6
 124 416 l 6
EndSplineSet
EndChar

StartChar: numbersign
Encoding: 35 35 110
Width: 1008
VWidth: 4000
Flags: HW
LayerCount: 2
Fore
SplineSet
143.983398438 296 m 2
 117.491210938 296 95.9833984375 274.4921875 95.9833984375 248 c 0
 95.9833984375 221.5078125 117.491210938 200 143.983398438 200 c 2
 863.983398438 200 l 2
 890.475585938 200 911.983398438 221.5078125 911.983398438 248 c 0
 911.983398438 274.4921875 890.475585938 296 863.983398438 296 c 2
 143.983398438 296 l 2
143.983398438 556 m 2
 117.491210938 556 95.9833984375 534.4921875 95.9833984375 508 c 0
 95.9833984375 481.5078125 117.491210938 460 143.983398438 460 c 2
 863.983398438 460 l 2
 890.475585938 460 911.983398438 481.5078125 911.983398438 508 c 0
 911.983398438 534.4921875 890.475585938 556 863.983398438 556 c 2
 143.983398438 556 l 2
95.9833984375 -272 m 0
 95.9833984375 -298.4921875 117.491210938 -320 143.983398438 -320 c 0
 164.638671875 -320 182.264648438 -306.924804688 189.028320312 -288.606445312 c 2
 669.028320312 1011.39355469 l 2
 680.525390625 1042.53027344 657.426757812 1076 623.983398438 1076 c 0
 603.328125 1076 585.702148438 1062.92480469 578.938476562 1044.60644531 c 2
 98.9384765625 -255.393554688 l 2
 98.9384765625 -260.569335938 95.9833984375 -266.1640625 95.9833984375 -272 c 0
335.983398438 -272 m 0
 335.983398438 -298.4921875 357.491210938 -320 383.983398438 -320 c 0
 404.638671875 -320 422.264648438 -306.924804688 429.028320312 -288.606445312 c 2
 909.028320312 1011.39355469 l 2
 920.525390625 1042.53027344 897.426757812 1076 863.983398438 1076 c 0
 843.328125 1076 825.702148438 1062.92480469 818.938476562 1044.60644531 c 2
 338.938476562 -255.393554688 l 2
 338.938476562 -260.569335938 335.983398438 -266.1640625 335.983398438 -272 c 0
EndSplineSet
EndChar

StartChar: slash
Encoding: 47 47 111
Width: 1008
VWidth: 4000
Flags: HW
LayerCount: 2
Fore
SplineSet
101.979492188 -248.794921875 m 2
 84.38671875 -280.559570312 107.46484375 -320 144 -320 c 0
 162.077148438 -320 177.833984375 -309.985351562 186.020507812 -295.205078125 c 2
 906.020507812 1004.79492188 l 2
 923.61328125 1036.55957031 900.53515625 1076 864 1076 c 0
 845.922851562 1076 830.166015625 1065.98535156 821.979492188 1051.20507812 c 2
 101.979492188 -248.794921875 l 2
EndSplineSet
EndChar

StartChar: NameMe.65552
Encoding: 65552 -1 112
Width: 1008
VWidth: 4000
Flags: HW
LayerCount: 2
Fore
SplineSet
224 1056 m 4
 187.0078125 1056 163.969726562 1015.64453125 182.5078125 983.865234375 c 6
 742.5078125 23.865234375 l 6
 750.831054688 9.5966796875 766.303710938 0 784 0 c 4
 820.9921875 0 844.030273438 40.35546875 825.4921875 72.134765625 c 6
 265.4921875 1032.13476562 l 6
 257.168945312 1046.40332031 241.696289062 1056 224 1056 c 4
EndSplineSet
EndChar
